<?xml version="1.0" standalone="no"?>
<!DOCTYPE svg PUBLIC "-//W3C//DTD SVG 20010904//EN"
 "http://www.w3.org/TR/2001/REC-SVG-20010904/DTD/svg10.dtd">
<svg version="1.0" xmlns="http://www.w3.org/2000/svg"
 width="578.000000pt" height="573.000000pt" viewBox="0 0 578.000000 573.000000"
 preserveAspectRatio="xMidYMid meet">

<g transform="translate(0.000000,573.000000) scale(0.100000,-0.100000)"
fill="#000000" stroke="none">
<path d="M2213 4994 c9 -3 15 -10 11 -15 -3 -5 -10 -7 -15 -4 -5 4 -9 2 -9 -2
0 -5 17 -17 39 -26 67 -30 66 -23 66 -572 0 -439 -2 -497 -18 -555 -20 -72
-36 -94 -90 -121 -21 -11 -35 -24 -32 -29 4 -6 181 -10 462 -10 407 0 454 2
443 15 -11 13 -10 14 4 9 9 -3 1 9 -18 28 -19 19 -39 52 -46 73 -11 39 -28
435 -18 435 3 0 72 -75 154 -166 148 -165 149 -166 186 -266 20 -56 43 -107
50 -114 13 -13 61 -16 196 -15 46 1 71 5 67 11 -3 6 0 10 7 10 7 0 -1 9 -19
19 -17 11 -43 40 -57 64 l-26 44 0 449 c0 267 4 475 11 514 12 78 43 137 86
166 25 17 29 24 20 34 -10 10 -8 10 11 1 14 -8 22 -8 22 -1 0 12 9 12 -195 12
-202 -1 -185 1 -185 -13 0 -5 5 -7 10 -4 6 3 10 2 10 -2 0 -5 16 -17 35 -27
54 -29 34 -31 -37 -3 -141 56 -175 60 -678 63 -256 1 -457 0 -447 -2z m545
-67 c27 -28 44 -107 40 -183 l-3 -58 -110 122 c-60 67 -111 127 -113 132 -2 6
30 10 80 10 75 0 87 -3 106 -23z m416 -22 c67 -32 121 -90 137 -147 15 -57 6
-154 -19 -203 -35 -69 -112 -125 -192 -140 -31 -6 -39 -2 -73 33 l-39 40 4
193 c3 164 6 199 22 228 17 32 20 33 62 27 25 -3 69 -17 98 -31z m-374 -497
c0 -17 -11 -18 -155 -18 l-155 0 0 178 1 177 154 -159 c86 -88 155 -167 155
-178z m685 -167 c0 -143 -2 -257 -4 -255 -2 2 -17 33 -32 69 -52 124 -127 201
-238 241 -25 10 -56 26 -69 38 l-22 20 84 17 c90 18 219 74 250 108 11 12 22
21 25 21 3 0 6 -117 6 -259z m-688 -128 c-6 -233 -17 -317 -51 -368 -16 -25
-19 -26 -113 -23 l-97 3 -20 55 c-17 48 -20 87 -24 308 l-4 252 157 0 158 0
-6 -227z"/>
<path d="M965 4569 c-22 -4 -85 -8 -140 -8 -98 -1 -102 -2 -152 -36 -62 -41
-75 -73 -44 -104 12 -12 27 -21 35 -21 8 0 17 -9 21 -19 6 -19 33 -36 43 -26
3 3 0 5 -6 5 -6 0 -9 7 -5 16 3 8 12 13 19 10 8 -3 14 0 14 7 1 7 12 -8 25
-33 20 -37 24 -40 21 -17 -3 15 -2 27 1 27 25 0 118 -38 126 -51 10 -16 13
-16 36 -2 l26 15 -25 -22 c-42 -38 -120 -72 -149 -66 -24 5 -24 4 4 -8 30 -14
30 -14 -19 -11 -27 2 -52 9 -57 17 -6 10 -9 10 -9 1 0 -8 -13 -13 -32 -12 -22
1 -26 3 -13 6 14 4 2 11 -40 24 -71 22 -89 24 -55 4 14 -8 19 -14 13 -15 -7 0
-22 9 -33 20 -11 11 -27 17 -37 14 -11 -4 -14 -3 -6 3 17 12 -6 37 -37 40 -14
2 -47 6 -74 9 -32 4 -46 3 -42 -4 6 -11 -31 -28 -49 -23 -5 1 -7 0 -3 -4 3 -4
-2 -15 -13 -26 -56 -56 16 -214 174 -378 63 -65 129 -109 222 -146 80 -31 192
-87 245 -120 26 -17 40 -35 49 -66 7 -24 20 -64 28 -89 8 -25 19 -104 23 -177
10 -156 38 -276 91 -391 39 -84 134 -216 149 -207 4 3 11 -2 14 -11 3 -8 11
-12 17 -8 7 4 9 3 6 -3 -8 -13 60 -57 86 -55 9 0 15 -3 12 -7 -2 -5 16 -14 41
-21 40 -11 48 -19 71 -64 36 -72 93 -147 105 -139 6 3 8 1 5 -4 -8 -13 24 -42
54 -48 13 -3 32 -15 44 -27 19 -21 19 -22 0 -7 -36 28 -51 31 -20 4 45 -39
144 -84 214 -97 53 -10 61 -14 61 -34 0 -12 10 -48 22 -79 26 -69 101 -141
176 -170 l52 -19 0 -51 c0 -86 51 -206 129 -302 27 -33 46 -65 43 -70 -4 -4
-3 -5 1 -2 5 4 67 -51 140 -121 72 -71 135 -126 139 -124 5 3 7 1 6 -4 -2 -5
12 -32 30 -60 59 -92 118 -229 129 -302 3 -19 9 -43 15 -53 6 -12 4 -22 -7
-33 -18 -18 -19 -28 -4 -53 13 -20 4 -75 -11 -66 -14 9 -12 -17 3 -35 19 -24
47 -21 60 7 9 21 8 27 -6 34 -18 11 -23 54 -7 64 6 3 7 17 4 31 -4 16 -2 24 7
24 9 0 7 4 -4 12 -15 12 -15 18 0 83 18 80 89 235 138 304 42 58 292 300 301
292 4 -3 4 -1 1 5 -4 7 1 18 10 25 30 26 90 114 122 181 34 71 50 137 44 180
-3 24 3 30 60 57 35 17 80 47 101 67 45 44 86 125 86 172 0 27 4 32 24 32 14
0 27 4 31 10 3 5 11 7 19 4 7 -3 26 1 42 7 16 7 34 13 39 13 41 5 189 111 178
129 -3 6 -1 7 4 4 6 -4 17 1 24 10 12 14 12 16 0 8 -10 -5 -12 -4 -7 4 4 6 11
9 15 6 15 -9 43 29 96 132 18 34 34 53 51 57 26 7 33 23 9 23 -8 0 -12 -4 -9
-9 3 -4 -12 -9 -33 -9 -21 -1 -52 -3 -70 -5 -18 -2 -35 1 -39 7 -4 8 1 9 16 4
16 -5 20 -4 15 5 -5 9 -1 10 15 5 17 -5 20 -4 15 5 -6 10 -1 11 20 6 22 -6 26
-4 22 8 -5 11 0 16 13 16 10 0 22 5 26 12 5 7 2 8 -7 3 -11 -6 -12 -5 -1 6 9
10 15 10 24 1 7 -7 21 -12 33 -11 19 0 19 1 -2 9 -21 8 -34 23 -15 18 11 -4
53 28 45 35 -3 4 4 7 16 7 12 0 19 4 16 10 -3 6 3 14 14 18 11 4 19 12 18 17
0 6 12 13 29 16 22 5 24 7 7 8 -22 1 -22 2 -5 31 9 17 22 28 28 26 6 -2 17 0
25 5 10 6 8 9 -11 9 l-25 1 24 13 c15 8 20 16 12 20 -6 4 -11 12 -11 17 0 6 4
8 9 5 5 -4 7 3 4 14 -4 16 -2 19 13 14 14 -4 15 -3 6 4 -21 14 -4 62 22 63 20
0 20 1 -2 10 -27 10 -20 29 11 29 12 0 29 5 37 11 11 8 7 9 -17 4 -18 -4 -34
-2 -38 5 -11 17 -22 3 -23 -31 0 -17 -6 -37 -13 -43 -9 -8 -10 -7 -5 8 11 32
7 278 -5 336 -7 30 -12 58 -11 63 1 4 -3 7 -8 7 -6 0 -10 9 -10 19 0 21 -30
98 -55 143 -9 15 -15 29 -15 30 2 5 -11 40 -30 83 -36 83 -52 159 -51 247 0
47 5 98 11 112 5 14 6 26 3 26 -4 0 -2 5 5 12 7 7 12 20 12 30 0 32 47 113 95
164 52 55 50 47 -10 -41 -23 -33 -44 -69 -48 -80 -3 -11 -13 -39 -21 -63 -9
-23 -14 -56 -11 -72 3 -16 1 -32 -5 -35 -12 -7 -14 -75 -2 -75 4 0 8 -17 8
-37 2 -76 4 -84 16 -77 7 5 9 2 6 -8 -4 -8 3 -32 13 -54 11 -21 17 -31 15 -22
-3 9 -8 33 -12 52 -3 20 -10 39 -15 42 -20 12 -8 24 14 13 20 -11 21 -11 8 5
-8 9 -20 15 -27 12 -8 -3 -11 0 -7 9 3 8 9 12 14 9 5 -3 9 -1 9 4 0 6 -7 13
-16 16 -23 9 -8 25 19 20 22 -5 22 -5 -1 6 -28 12 -19 33 11 25 17 -5 19 -4 7
4 -8 6 -22 8 -32 5 -9 -2 -20 1 -24 7 -5 8 -3 9 6 4 9 -5 10 -2 5 14 -6 21 8
30 20 11 3 -5 12 -10 18 -10 7 1 2 9 -10 19 -24 20 -30 41 -12 41 5 0 7 5 4
10 -4 6 -11 7 -17 4 -6 -4 -6 2 1 15 7 11 17 21 24 21 8 0 8 3 -2 9 -7 5 -10
14 -6 20 5 9 10 9 21 0 8 -6 18 -9 21 -5 7 7 -9 21 -31 29 -5 2 -6 8 -2 15 3
6 13 9 21 6 8 -4 13 -9 11 -13 -3 -4 4 -7 14 -7 14 0 16 4 9 12 -7 9 -5 13 8
16 10 2 18 12 18 23 0 14 6 19 18 17 9 -2 17 3 17 11 0 8 9 17 21 20 12 3 19
3 16 0 -3 -3 3 -14 14 -26 23 -25 24 -37 4 -37 -9 0 -12 -6 -9 -15 4 -10 0
-15 -11 -15 -14 0 -15 -3 -5 -15 10 -12 9 -15 -5 -15 -14 0 -15 -3 -6 -14 9
-11 9 -15 0 -18 -7 -2 -13 -16 -15 -30 -2 -21 1 -26 14 -21 11 3 8 -3 -8 -17
-25 -21 -25 -22 -2 -17 27 6 29 -9 2 -18 -11 -4 -18 -11 -14 -16 4 -6 11 -6
20 2 8 6 17 9 20 7 3 -3 -7 -15 -21 -26 -14 -11 -21 -23 -16 -26 5 -4 14 2 20
11 9 16 12 16 21 3 5 -8 10 -19 10 -25 0 -5 -5 -3 -10 5 -6 9 -10 10 -10 3 0
-6 5 -15 11 -19 6 -3 9 -15 6 -25 -3 -11 -2 -17 2 -15 11 7 34 -91 25 -106 -4
-7 -3 -10 1 -5 5 4 19 -21 32 -55 25 -66 22 -101 -12 -138 -13 -14 -13 -17 0
-17 8 0 11 5 8 11 -4 6 1 5 9 -2 17 -13 14 -42 -3 -42 -5 0 -9 -5 -9 -11 0 -7
9 -9 21 -6 15 4 19 2 15 -9 -3 -8 -9 -21 -12 -29 -8 -20 10 -19 30 1 23 22 20
1 -4 -29 -25 -32 -25 -35 2 -39 20 -3 21 -4 5 -20 -21 -21 -21 -28 -2 -28 18
0 19 -11 2 -29 -9 -11 -9 -14 1 -18 28 -10 4 -42 -48 -65 -14 -6 -20 -12 -13
-15 6 -2 23 3 38 13 32 21 44 11 20 -16 -17 -19 -17 -20 0 -20 17 0 17 -1 1
-19 -12 -13 -14 -21 -6 -26 8 -5 6 -12 -5 -25 -13 -14 -13 -19 -3 -23 11 -4
11 -7 0 -15 -7 -5 -10 -15 -7 -24 7 -17 -8 -31 -50 -46 -18 -6 -23 -11 -12
-11 10 -1 27 4 38 9 23 13 23 12 3 -28 -8 -18 -21 -32 -27 -32 -7 0 -4 -5 6
-11 22 -13 22 -33 0 -25 -10 4 -14 4 -10 0 4 -4 1 -14 -6 -22 -9 -13 -9 -14 1
-8 13 8 16 -3 4 -19 -8 -12 -21 -15 -82 -26 l-45 -7 45 0 c64 0 67 -1 49 -15
-9 -7 -18 -16 -20 -22 -2 -5 -8 -9 -12 -7 -5 1 -5 -3 -1 -9 4 -8 -1 -9 -17 -4
-18 5 -20 4 -9 -4 12 -8 10 -12 -10 -20 -14 -5 -21 -10 -16 -10 5 -1 1 -10 -9
-21 -10 -11 -22 -17 -28 -13 -6 4 -8 0 -4 -9 3 -9 0 -21 -6 -28 -7 -7 5 -1 26
15 43 32 124 131 155 190 74 142 100 245 112 436 4 75 12 145 17 155 5 10 18
49 27 86 15 57 23 70 54 91 42 27 205 107 272 132 94 35 191 114 274 225 27
36 54 70 61 75 18 15 55 126 55 164 0 22 -9 40 -27 58 -16 15 -21 22 -13 18
13 -8 13 -7 1 8 -15 19 -26 23 -15 5 5 -8 2 -9 -10 -5 -10 4 -20 7 -22 7 -3 0
-2 5 2 11 5 9 -6 10 -42 5 -27 -4 -60 -8 -74 -9 -31 -2 -54 -28 -37 -40 8 -6
6 -7 -5 -3 -10 3 -45 -4 -79 -14 -34 -11 -69 -20 -78 -21 -12 0 -11 -2 4 -9
17 -7 15 -9 -12 -9 -20 -1 -33 4 -33 12 0 9 -3 9 -9 -1 -5 -8 -30 -15 -57 -17
l-49 -2 35 13 c26 10 28 13 8 9 -14 -3 -34 -8 -44 -12 -11 -4 -15 -2 -11 4 4
6 -11 18 -32 27 -20 10 -51 29 -67 42 -31 27 -16 23 28 -8 34 -23 50 -23 20 0
-29 22 -20 32 52 56 64 21 65 21 62 -9 -4 -34 10 -22 24 21 7 20 15 32 19 27
3 -5 15 -13 26 -17 16 -6 17 -9 5 -16 -8 -6 -10 -10 -5 -10 6 0 3 -4 -5 -10
-8 -5 -11 -13 -6 -17 5 -4 11 -3 13 4 2 6 13 21 24 34 10 12 19 26 19 31 0 4
8 8 18 8 10 0 26 9 36 21 27 32 13 64 -47 104 -50 34 -54 35 -148 35 -53 0
-119 4 -146 9 -57 11 -121 -2 -192 -39 -35 -19 -67 -25 -170 -31 -69 -5 -146
-13 -170 -19 -57 -14 -103 -38 -96 -50 9 -15 25 -12 25 5 0 8 3 14 8 14 21 -4
53 2 49 9 -3 4 5 7 16 8 12 1 49 4 82 8 73 8 40 -6 -55 -23 -36 -7 -77 -21
-92 -32 -15 -10 -30 -19 -34 -19 -15 0 -93 -91 -113 -132 -17 -35 -20 -37 -14
-13 3 16 6 35 6 42 0 7 4 10 8 7 5 -2 15 8 23 24 8 16 22 32 31 36 9 3 13 11
10 16 -4 6 -3 9 2 8 15 -5 55 29 43 37 -27 17 -132 -103 -146 -167 -9 -39 -12
-53 -14 -53 -7 0 -14 -72 -14 -127 2 -91 5 -117 15 -124 4 -2 6 -11 2 -19 -3
-9 -1 -21 4 -28 5 -6 10 -23 11 -37 1 -14 6 -26 12 -28 5 -2 8 -8 4 -13 -3 -5
0 -9 6 -9 6 0 8 -4 5 -10 -3 -5 4 -29 16 -52 26 -50 137 -218 145 -218 3 0 2
5 -1 10 -3 6 -1 10 4 10 6 0 10 -10 9 -23 -2 -25 40 -107 56 -107 5 0 7 -3 3
-6 -3 -3 12 -39 33 -79 l39 -73 -44 -41 c-25 -23 -61 -49 -80 -58 -35 -17 -36
-17 -58 7 -88 97 -100 140 -62 220 38 79 31 108 -44 188 -44 45 -67 62 -86 62
-28 0 -79 -23 -108 -48 -11 -10 -47 -19 -90 -23 -75 -7 -130 -26 -121 -40 3
-5 -1 -6 -9 -3 -20 7 -95 -52 -138 -110 -52 -68 -79 -157 -79 -256 0 -44 4
-80 9 -80 4 0 6 -10 4 -23 -3 -13 7 -52 21 -86 24 -59 24 -64 10 -89 l-16 -27
20 23 20 22 22 -34 c46 -76 252 -228 282 -210 6 4 8 3 5 -3 -4 -7 28 -22 81
-39 48 -15 89 -29 91 -31 7 -5 -51 -63 -79 -78 -58 -33 -146 -72 -161 -72 -10
0 -15 7 -12 16 4 18 -89 146 -118 162 -20 10 -79 3 -79 -9 0 -4 -18 -8 -40 -8
-78 -3 -139 -60 -147 -137 -10 -82 48 -183 105 -185 31 -2 94 -20 72 -21 -8
-1 -30 3 -48 8 -17 5 -32 6 -32 2 0 -14 101 -53 121 -48 11 3 17 1 13 -4 -3
-5 2 -9 10 -9 20 0 20 -17 1 -54 -8 -15 -12 -32 -9 -37 3 -5 2 -9 -3 -8 -17 3
-32 -1 -45 -14 -7 -7 -25 -18 -40 -24 -28 -13 -38 -7 -51 30 -4 11 -12 15 -18
11 -7 -4 -9 -3 -6 3 9 14 -60 76 -113 103 -25 13 -49 18 -61 15 -28 -9 -58
-80 -59 -135 -1 -65 -15 -120 -60 -226 -33 -76 -40 -105 -40 -158 0 -56 3 -67
22 -80 12 -9 34 -16 48 -16 26 1 80 41 80 60 0 5 4 10 8 10 5 0 17 18 27 41
21 45 81 103 144 136 l41 22 0 -37 c0 -121 -53 -211 -233 -395 -169 -174 -196
-206 -239 -282 -47 -85 -91 -192 -85 -209 4 -11 1 -11 -18 -3 -12 6 -28 27
-35 47 -27 76 -70 161 -79 156 -5 -3 -15 2 -22 12 -13 15 -12 16 4 3 9 -7 17
-9 17 -3 0 22 -95 134 -232 275 -80 82 -160 174 -178 204 -36 60 -60 136 -60
195 l0 38 48 -26 c26 -15 60 -38 76 -53 27 -25 96 -124 96 -139 0 -11 68 -52
88 -52 9 0 28 7 40 16 19 13 22 24 22 80 0 54 -7 82 -41 162 -31 71 -45 123
-54 193 -20 154 -49 188 -126 149 -47 -24 -139 -106 -139 -124 0 -7 -5 -17
-12 -24 -9 -9 -24 -5 -64 18 -28 16 -55 26 -58 22 -4 -3 -4 2 0 12 4 12 4 17
-2 13 -5 -3 -10 2 -11 11 -1 9 -4 27 -8 40 -6 17 -3 22 9 22 10 0 15 4 12 9
-4 5 3 7 15 4 21 -6 119 34 119 48 0 4 -15 3 -32 -2 -43 -12 -72 -10 -33 2 17
6 44 10 62 10 25 1 37 9 59 40 15 22 33 61 39 87 23 88 -26 168 -117 192 -22
6 -46 9 -54 6 -8 -3 -14 -2 -14 3 0 14 -53 20 -75 9 -39 -20 -130 -141 -122
-163 4 -9 -1 -12 -16 -10 -55 6 -156 64 -211 119 l-30 30 70 21 c42 13 63 24
54 27 -11 5 -9 6 5 6 41 -2 56 2 49 14 -4 7 -3 8 4 4 21 -13 145 67 218 139
79 78 136 179 138 242 0 21 5 41 10 44 13 10 7 165 -9 212 -25 74 -64 134
-117 182 -67 60 -125 85 -214 94 -43 4 -80 13 -91 23 -29 25 -80 48 -108 48
-43 0 -155 -127 -155 -176 0 -12 11 -42 25 -68 40 -75 31 -120 -44 -206 l-39
-45 -35 17 c-76 36 -139 113 -108 132 9 6 49 85 49 100 0 5 5 12 10 15 15 10
60 105 55 118 -2 6 1 15 8 19 8 4 9 3 5 -4 -4 -7 -5 -12 -3 -12 8 0 56 67 59
81 2 8 8 18 15 24 20 17 83 127 77 136 -3 5 -1 9 4 9 12 0 43 86 35 94 -3 3 0
12 6 20 7 8 10 20 7 25 -4 5 -2 12 3 16 5 3 10 13 11 23 11 152 10 186 -5 239
-25 85 -63 149 -114 192 -88 73 -143 90 -322 101 -106 6 -133 10 -165 30 -32
19 -135 51 -154 48 -3 0 -23 -4 -45 -9z m108 -23 c28 -22 5 -25 -28 -5 -24 15
-26 19 -10 19 11 -1 28 -7 38 -14z m3662 -5 c-16 -10 -34 -16 -38 -14 -12 7
25 32 48 33 16 0 14 -4 -10 -19z m-3745 -17 c0 -2 -7 -4 -15 -4 -8 0 -15 4
-15 10 0 5 7 7 15 4 8 -4 15 -8 15 -10z m3830 6 c0 -5 -5 -10 -11 -10 -5 0 -7
5 -4 10 3 6 8 10 11 10 2 0 4 -4 4 -10z m-3792 -31 c-3 -8 -7 -3 -11 10 -4 17
-3 21 5 13 5 -5 8 -16 6 -23z m96 16 c3 -8 1 -15 -4 -15 -6 0 -10 7 -10 15 0
8 2 15 4 15 2 0 6 -7 10 -15z m3537 -8 c-10 -9 -11 -8 -5 6 3 10 9 15 12 12 3
-3 0 -11 -7 -18z m101 -4 c-3 -16 -7 -22 -10 -15 -4 13 4 42 11 42 2 0 2 -12
-1 -27z m-3967 7 c9 -15 -14 -52 -28 -43 -8 5 -8 8 0 10 6 2 9 13 6 23 -5 21
11 28 22 10z m4212 -10 c-3 -10 0 -21 6 -23 8 -2 8 -5 0 -10 -14 -9 -37 28
-28 43 11 18 27 11 22 -10z m-3515 -38 c36 -11 74 -26 83 -35 19 -19 40 -23
29 -5 -4 7 -3 8 5 4 6 -4 9 -11 7 -15 -3 -4 9 -18 25 -32 17 -13 37 -37 45
-52 8 -15 18 -25 23 -23 4 3 8 0 8 -7 0 -7 3 -25 7 -42 6 -29 5 -28 -10 5 -24
52 -81 118 -127 147 -49 31 -86 42 -197 58 l-85 13 60 1 c33 1 90 -7 127 -17z
m2971 11 c-7 -2 -19 -2 -25 0 -7 3 -2 5 12 5 14 0 19 -2 13 -5z m-3766 -9 c-3
-3 -12 -4 -19 -1 -8 3 -5 6 6 6 11 1 17 -2 13 -5z m43 -4 c0 -5 -4 -10 -10
-10 -5 0 -10 5 -10 10 0 6 5 10 10 10 6 0 10 -4 10 -10z m107 4 c-3 -3 -12 -4
-19 -1 -8 3 -5 6 6 6 11 1 17 -2 13 -5z m63 -4 c12 -8 11 -10 -7 -10 -12 0
-25 5 -28 10 -8 13 15 13 35 0z m3995 0 c-3 -5 -16 -10 -28 -10 -18 0 -19 2
-7 10 20 13 43 13 35 0z m58 3 c-7 -2 -19 -2 -25 0 -7 3 -2 5 12 5 14 0 19 -2
13 -5z m102 -3 c-3 -5 -10 -10 -16 -10 -5 0 -9 5 -9 10 0 6 7 10 16 10 8 0 12
-4 9 -10z m42 4 c-3 -3 -12 -4 -19 -1 -8 3 -5 6 6 6 11 1 17 -2 13 -5z m-4147
-14 c12 -8 11 -10 -7 -10 -13 0 -23 5 -23 10 0 13 11 13 30 0z m3890 0 c0 -5
-10 -10 -22 -10 -19 0 -20 2 -8 10 19 13 30 13 30 0z m95 -10 c-11 -5 -30 -9
-42 -9 -12 -1 -23 -6 -25 -11 -2 -6 -37 -12 -78 -15 l-75 -4 105 23 c112 25
148 30 115 16z m-3975 -20 l85 -19 -74 4 c-41 3 -77 9 -80 14 -3 5 -15 11 -26
14 -57 14 22 3 95 -13z m140 10 c0 -5 -7 -7 -15 -4 -8 4 -15 8 -15 10 0 2 7 4
15 4 8 0 15 -4 15 -10z m56 -5 c24 -18 7 -19 -26 0 -16 9 -19 14 -9 15 8 0 24
-7 35 -15z m3494 10 c0 -8 -52 -26 -58 -20 -3 2 6 9 19 14 28 11 39 13 39 6z
m40 -5 c0 -5 -2 -10 -4 -10 -3 0 -8 5 -11 10 -3 6 -1 10 4 10 6 0 11 -4 11
-10z m-3607 -27 c-7 -2 -19 -2 -25 0 -7 3 -2 5 12 5 14 0 19 -2 13 -5z m3620
0 c-7 -2 -19 -2 -25 0 -7 3 -2 5 12 5 14 0 19 -2 13 -5z m-3543 -21 c0 -4 -9
-15 -20 -25 -11 -9 -17 -23 -14 -31 8 -21 -37 -80 -48 -64 -5 8 -7 4 -6 -12 2
-16 -2 -24 -9 -22 -7 1 -13 -7 -13 -17 0 -11 -4 -22 -9 -26 -6 -3 -7 6 -2 22
12 39 44 107 54 111 4 2 7 9 7 15 0 6 10 21 22 34 22 23 38 30 38 15z m3491
-30 c8 -15 16 -29 20 -32 19 -17 65 -145 48 -135 -5 4 -9 16 -9 27 0 12 -3 18
-7 15 -11 -12 -74 85 -67 105 3 11 -1 20 -10 24 -9 3 -16 12 -16 20 0 21 26 6
41 -24z m-3621 18 c0 -5 -4 -10 -10 -10 -5 0 -10 5 -10 10 0 6 5 10 10 10 6 0
10 -4 10 -10z m60 6 c0 -2 -8 -23 -19 -46 l-18 -42 -12 33 c-8 24 -8 35 0 45
10 12 49 20 49 10z m3657 -10 c-9 -7 -22 -28 -29 -47 l-11 -33 -14 38 c-7 21
-11 42 -8 46 2 3 21 7 42 8 34 1 36 0 20 -12z m-3361 -177 c13 -27 24 -57 24
-68 0 -11 4 -22 9 -25 16 -10 32 -126 26 -193 -8 -83 -27 -150 -71 -248 -10
-22 -18 -42 -19 -45 0 -3 -13 -33 -28 -68 -16 -34 -31 -75 -33 -90 -3 -14 -10
-29 -15 -33 -6 -3 -10 -10 -10 -15 1 -5 -3 -31 -9 -58 -12 -57 -14 -217 -4
-297 4 -29 3 -51 -1 -47 -5 5 -10 20 -11 34 -5 47 -12 58 -29 44 -11 -9 -22
-9 -46 -1 -18 6 -34 9 -36 7 -4 -4 45 -24 71 -28 25 -4 33 -28 9 -29 -15 -1
-15 -2 -1 -6 18 -5 33 -48 22 -65 -5 -7 -2 -8 6 -3 10 6 12 3 8 -13 -4 -12 -2
-20 3 -16 5 3 9 -2 9 -10 0 -10 -13 -16 -37 -19 l-38 -4 42 -1 c43 -2 72 -22
31 -22 -17 0 -20 -2 -9 -9 8 -5 20 -7 28 -4 7 3 13 -1 13 -10 0 -9 -8 -17 -17
-20 -15 -3 -14 -4 2 -4 11 0 29 -4 40 -9 18 -8 17 -9 -10 -15 l-30 -7 34 -1
c24 -1 32 -5 28 -15 -3 -8 2 -16 15 -19 11 -3 17 -10 13 -16 -3 -6 2 -11 13
-11 11 0 23 -7 26 -16 5 -13 -2 -15 -47 -13 -53 2 -81 14 -71 30 3 5 -2 9 -11
9 -10 0 -13 -5 -9 -12 4 -7 3 -8 -4 -4 -13 8 -16 32 -4 39 4 2 1 2 -7 0 -20
-5 -41 16 -34 34 5 12 3 14 -7 8 -10 -6 -12 -3 -8 13 4 13 0 23 -9 26 -9 4
-12 1 -8 -7 4 -6 -1 -3 -9 7 -21 26 -20 37 1 29 10 -4 4 6 -14 23 -17 16 -34
40 -38 54 -5 20 -4 22 5 10 9 -13 11 -12 8 5 -2 11 -10 20 -17 20 -8 0 -16 7
-18 15 -4 13 -3 13 6 0 7 -10 11 -11 11 -3 0 9 7 10 26 3 14 -6 31 -10 37 -9
7 0 -1 5 -18 11 -44 16 -56 28 -49 51 5 15 3 19 -9 14 -11 -4 -14 -2 -10 9 3
7 10 14 16 14 5 0 2 9 -7 19 -13 15 -14 20 -4 23 10 4 10 8 -1 22 -12 14 -12
19 -2 25 9 6 8 11 -4 21 -22 18 -18 32 8 25 l22 -6 -22 20 c-25 21 -29 37 -11
43 7 3 6 12 -6 30 -17 26 -17 26 3 21 25 -6 27 3 4 25 -16 16 -15 17 5 20 27
4 27 7 2 39 -17 21 -20 23 -20 8 0 -10 -3 -16 -6 -12 -3 3 -3 15 1 26 6 19 8
19 21 6 9 -8 19 -15 24 -15 9 0 7 26 -3 36 -13 14 -7 23 13 19 11 -2 20 0 20
6 0 5 -4 9 -10 9 -5 0 -10 9 -10 19 0 15 5 18 21 14 20 -6 20 -3 -7 36 l-28
43 30 84 c16 46 31 84 34 84 3 0 6 8 7 18 0 9 4 28 7 42 4 14 7 37 8 52 1 16
5 25 11 21 6 -4 8 0 4 10 -3 10 -2 17 3 17 5 0 6 8 3 18 -6 14 -4 15 9 4 10
-8 19 -9 22 -3 4 5 -3 12 -14 16 -27 9 -25 25 3 20 22 -4 22 -4 -3 16 -24 20
-24 20 -2 14 13 -4 22 -2 22 4 0 6 -5 11 -11 11 -6 0 -8 7 -5 15 3 9 -1 18 -9
22 -12 4 -13 9 -4 19 9 11 8 14 -6 14 -14 0 -15 3 -5 15 10 12 9 15 -5 15 -11
0 -15 5 -12 14 3 8 -1 17 -10 21 -13 4 -14 8 -5 17 7 7 12 17 12 23 0 5 -5 3
-10 -5 -7 -12 -12 -12 -22 -2 -9 9 -8 12 8 13 10 1 25 1 33 0 7 -2 10 2 7 7
-3 6 2 8 14 5 11 -3 20 -12 20 -19 0 -17 12 -18 29 -1 11 10 13 7 8 -17 -4
-22 0 -30 14 -33 15 -4 17 -8 8 -19 -10 -12 -8 -13 7 -8 10 4 24 11 31 16 7 5
14 5 18 -2 4 -6 5 -13 4 -14 -2 -1 -15 -10 -29 -19 -18 -13 -20 -17 -8 -17 9
0 20 5 23 10 3 6 10 10 16 10 14 0 11 -28 -3 -33 -8 -3 -6 -6 5 -6 20 -1 22
-21 5 -40 -9 -10 -9 -12 -1 -7 26 14 24 -18 -3 -40 -16 -13 -24 -23 -17 -24 6
0 15 5 18 10 11 18 27 11 22 -10 -3 -13 -1 -18 6 -14 8 5 7 2 0 -7 -17 -18
-16 -29 2 -29 10 0 15 10 15 33 0 19 -3 36 -6 40 -4 3 -7 25 -9 49 -4 74 -20
113 -90 223 l-46 70 46 -49 c26 -27 57 -71 71 -97z m41 135 c-3 -3 -12 -4 -19
-1 -8 3 -5 6 6 6 11 1 17 -2 13 -5z m2930 0 c-3 -3 -12 -4 -19 -1 -8 3 -5 6 6
6 11 1 17 -2 13 -5z m-2866 -16 c1 -7 1 -17 0 -23 -1 -5 5 -2 13 8 13 17 15
16 21 -14 5 -22 3 -34 -6 -40 -22 -14 -24 -12 -35 36 -6 25 -7 45 -2 45 4 0 9
-6 9 -12z m2787 -18 c-5 -17 -7 -37 -4 -45 6 -16 -11 -20 -32 -7 -17 12 -4 75
14 68 8 -3 14 -1 14 4 0 6 4 10 9 10 6 0 6 -12 -1 -30z m-2840 11 c15 -9 21
-75 8 -88 -11 -12 -29 26 -30 64 -1 35 1 38 22 24z m2907 -23 c-4 -70 -35 -95
-35 -28 0 33 10 51 36 60 0 0 0 -15 -1 -32z m952 26 c-3 -3 -12 -4 -19 -1 -8
3 -5 6 6 6 11 1 17 -2 13 -5z m-4387 -48 c-14 -7 -36 -16 -50 -20 -14 -3 -7 3
15 13 45 22 73 27 35 7z m3990 -12 c0 -9 -28 -3 -46 11 -17 13 -16 14 14 4 17
-6 32 -13 32 -15z m290 16 c-8 -5 -19 -10 -25 -10 -5 0 -3 5 5 10 8 5 20 10
25 10 6 0 3 -5 -5 -10z m-4709 -21 c30 -12 72 -28 94 -37 46 -17 221 -30 212
-15 -4 6 5 8 21 6 22 -4 24 -2 12 7 -12 8 -9 9 14 4 20 -5 27 -4 22 4 -5 8 -1
10 10 5 10 -4 15 -2 11 3 -3 5 2 10 11 10 9 1 25 4 35 9 27 12 20 -9 -26 -77
-24 -35 -46 -76 -49 -91 -11 -56 41 -70 89 -25 l25 23 -8 -30 c-4 -16 -11 -40
-15 -53 -17 -46 -8 -217 17 -294 3 -12 -21 -3 -88 30 -51 26 -131 65 -176 86
-60 28 -105 59 -158 109 -41 38 -74 73 -74 77 0 4 -18 34 -39 66 -37 56 -71
137 -71 169 0 35 58 42 131 14z m4910 11 c24 -14 24 -36 -2 -102 -44 -113
-154 -247 -255 -310 -22 -14 -95 -51 -163 -81 -68 -31 -132 -64 -142 -73 -11
-10 -21 -15 -23 -13 -3 2 2 29 10 59 8 30 15 96 15 145 0 83 -5 115 -27 170
-7 17 -3 16 25 -7 18 -16 37 -28 42 -28 21 0 49 22 49 38 0 22 -35 88 -66 125
-13 16 -24 37 -24 48 0 17 3 18 20 9 11 -6 26 -8 32 -4 7 4 8 3 4 -4 -9 -15
56 -33 66 -18 5 7 8 7 8 -2 0 -7 5 -10 10 -7 6 3 10 1 10 -4 0 -7 27 -11 68
-11 67 0 110 11 227 58 58 23 88 26 116 12z m-4754 -6 c-3 -3 -12 -4 -19 -1
-8 3 -5 6 6 6 11 1 17 -2 13 -5z m3947 -20 c9 -3 13 -10 10 -15 -8 -14 -21
-11 -28 6 -6 17 -4 18 18 9z m-3917 -10 c-3 -3 -12 -4 -19 -1 -8 3 -5 6 6 6
11 1 17 -2 13 -5z m1071 -49 c0 -16 -2 -15 -8 5 -11 34 -11 60 0 35 5 -11 8
-29 8 -40z m2296 16 c-4 -17 -9 -30 -11 -27 -3 2 -2 19 2 36 9 41 17 33 9 -9z
m-2469 7 c28 -13 30 -19 13 -37 -7 -7 -8 -12 -3 -11 27 6 34 -2 31 -30 -2 -17
1 -33 6 -36 5 -3 6 -14 3 -25 -4 -10 -2 -19 4 -19 6 0 8 -7 4 -16 -3 -9 -1
-19 6 -23 9 -6 7 -14 -6 -30 -16 -19 -22 -21 -46 -12 -15 6 -32 22 -37 37 -8
19 -15 25 -30 21 -15 -4 -20 0 -22 16 -2 25 -4 56 -7 75 0 7 -5 11 -10 8 -11
-7 -1 46 12 63 9 10 32 23 54 30 1 1 14 -4 28 -11z m2700 -9 c24 -20 26 -26
20 -68 -14 -102 -16 -109 -34 -104 -11 3 -21 -4 -29 -22 -6 -14 -24 -30 -39
-36 -24 -9 -30 -7 -46 12 -13 16 -15 24 -6 30 7 4 9 14 6 23 -4 9 -2 16 3 16
5 0 7 14 5 30 -2 18 3 36 11 45 9 8 11 15 5 15 -6 0 -11 5 -11 11 0 5 5 7 10
4 6 -3 10 -1 10 5 0 6 5 8 12 4 7 -5 8 -3 4 5 -5 7 -14 10 -22 7 -25 -10 -15
4 19 24 40 25 48 25 82 -1z m-3253 -47 c-12 -16 -43 -46 -69 -67 l-48 -38 47
46 c26 25 55 58 64 72 9 14 19 23 21 21 3 -3 -4 -18 -15 -34z m3808 -60 l45
-44 -43 33 c-43 33 -92 91 -91 106 0 4 10 -5 22 -21 12 -16 42 -50 67 -74z
m-3090 -132 c-6 -36 -23 -87 -36 -115 -13 -27 -21 -41 -18 -30 26 83 54 195
55 220 1 21 3 24 6 10 3 -11 0 -49 -7 -85z m2325 -42 c19 -54 19 -83 1 -43
-20 42 -36 118 -35 157 1 26 3 22 10 -19 5 -28 15 -71 24 -95z m-2408 110 c-3
-8 -6 -5 -6 6 -1 11 2 17 5 13 3 -3 4 -12 1 -19z m-537 -65 c0 -3 -7 -3 -15 1
-9 3 -15 0 -15 -8 0 -8 -3 -21 -6 -30 -4 -11 0 -16 14 -16 12 0 24 -4 27 -10
3 -5 0 -7 -8 -4 -10 4 -13 -3 -9 -26 4 -25 1 -30 -17 -30 -21 0 -43 32 -55 83
-6 26 -5 27 13 18 27 -15 31 -14 31 7 0 10 3 21 6 25 6 6 34 -2 34 -10z m3578
-18 c-4 -21 -35 -29 -35 -9 0 10 4 11 14 3 10 -9 13 -7 13 10 0 14 -4 20 -12
15 -7 -5 -8 -3 -3 5 10 17 28 -1 23 -24z m-3152 -25 c10 -59 44 -75 70 -34 18
27 34 31 34 9 0 -8 5 -15 10 -15 6 0 10 -4 10 -10 0 -5 -6 -7 -13 -4 -8 3 -13
-4 -14 -16 -1 -11 2 -18 8 -15 5 4 9 2 9 -4 0 -5 -4 -13 -10 -16 -5 -3 -10
-11 -10 -16 0 -6 5 -7 10 -4 6 3 10 1 10 -4 0 -6 -7 -11 -16 -11 -11 0 -14 -5
-10 -17 4 -9 3 -19 -2 -22 -5 -3 -13 -17 -17 -30 -5 -18 -4 -22 6 -16 8 5 11
4 6 -1 -5 -5 -11 -8 -14 -6 -6 4 -83 -106 -83 -118 0 -5 -10 -19 -22 -31 -13
-12 -17 -18 -9 -14 15 9 -36 -64 -53 -77 -5 -3 -10 -15 -11 -26 -2 -25 -53
-112 -66 -112 -6 0 -8 -4 -5 -9 4 -5 1 -11 -6 -13 -19 -7 -40 19 -34 39 3 10
7 30 10 44 9 56 49 130 77 145 38 19 51 44 35 66 -7 10 -16 15 -20 11 -3 -4
-1 8 5 25 12 36 29 43 29 12 0 -20 39 -38 59 -26 5 3 21 29 35 58 30 59 35
101 11 92 -17 -7 -21 11 -5 19 6 3 5 4 -2 3 -7 -1 -14 -12 -16 -24 -2 -16 -10
-22 -28 -22 -33 0 -33 42 1 76 28 28 32 56 10 74 -15 13 -21 61 -8 73 14 15
23 5 29 -33z m2724 8 c0 -17 -7 -40 -16 -50 -14 -15 -15 -20 -3 -35 9 -11 10
-14 2 -9 -23 13 -14 -6 12 -26 16 -13 25 -29 25 -49 0 -24 -4 -29 -24 -29 -18
0 -26 6 -28 22 -2 12 -9 23 -16 24 -7 1 -8 0 -2 -3 14 -7 13 -24 -2 -20 -41 8
16 -139 58 -149 29 -7 44 2 44 27 0 10 4 19 9 19 16 0 23 -38 11 -61 -8 -15
-9 -19 -1 -15 6 4 11 3 11 -3 0 -5 -5 -13 -10 -16 -14 -9 -3 -24 26 -35 26
-10 70 -89 79 -142 3 -18 8 -41 11 -52 4 -10 0 -22 -7 -27 -18 -11 -42 -11
-35 0 3 5 -1 11 -9 15 -8 3 -15 10 -15 16 0 17 -26 40 -35 32 -5 -4 -5 -2 -2
4 8 15 -17 77 -47 118 -13 17 -26 38 -30 46 -22 49 -99 159 -107 154 -4 -2
-11 1 -15 7 -5 8 -3 9 6 4 9 -6 10 -2 5 16 -4 13 -12 27 -17 30 -5 3 -6 14 -2
24 5 12 4 16 -3 12 -6 -4 -14 0 -17 9 -3 8 -2 12 4 9 6 -3 10 1 10 9 0 9 -6
16 -12 16 -9 0 -10 3 -2 8 16 10 14 44 -3 38 -7 -3 -13 -1 -13 4 0 6 6 10 14
10 10 0 12 7 9 23 -5 19 -2 18 25 -10 38 -40 60 -42 68 -5 15 72 44 99 44 40z
m-3153 7 c0 -8 -4 -12 -9 -9 -5 3 -6 10 -3 15 9 13 12 11 12 -6z m3614 -50
c-15 -33 -26 -45 -41 -45 -18 0 -21 5 -18 33 3 37 46 76 60 54 5 -8 8 -5 9 8
0 11 3 15 5 8 3 -7 -4 -33 -15 -58z m-3754 13 c-3 -8 -6 -5 -6 6 -1 11 2 17 5
13 3 -3 4 -12 1 -19z m39 -71 c12 -23 26 -54 32 -69 7 -16 19 -28 28 -28 11 0
14 -5 10 -16 -3 -9 -6 -24 -6 -35 0 -10 -5 -19 -11 -19 -6 0 -8 9 -4 21 5 15
4 19 -4 15 -7 -5 -11 2 -12 16 -1 20 -2 21 -6 3 -3 -11 -10 -31 -15 -45 -10
-24 -11 -23 -24 23 -8 26 -20 47 -27 47 -8 0 -7 4 3 10 13 8 13 11 1 22 -11
11 -13 11 -6 -1 5 -9 4 -12 -3 -7 -7 4 -12 17 -12 29 0 18 2 19 10 7 7 -10 8
0 4 33 -8 60 11 57 42 -6z m3792 -11 c-2 -35 -6 -62 -9 -60 -4 2 -10 -12 -13
-31 -4 -20 -10 -33 -14 -31 -4 3 -7 -12 -5 -32 l3 -37 -16 42 c-11 29 -20 40
-30 36 -9 -3 -12 -13 -9 -24 4 -11 2 -19 -3 -19 -5 0 -9 6 -9 13 0 6 -3 21 -6
32 -5 15 -1 23 16 30 12 6 24 21 27 35 9 43 49 109 68 110 1 0 1 -29 0 -64z
m-3303 34 c0 -7 -6 -15 -12 -17 -8 -3 -13 4 -13 17 0 13 5 20 13 18 6 -3 12
-11 12 -18z m2795 0 c0 -11 -4 -20 -9 -20 -14 0 -23 18 -16 30 10 17 25 11 25
-10z m-206 -26 c3 -8 2 -12 -4 -9 -6 3 -10 10 -10 16 0 14 7 11 14 -7z m-2423
-57 c-10 -9 -11 -8 -5 6 3 10 9 15 12 12 3 -3 0 -11 -7 -18z m-20 -40 c-10 -9
-11 -8 -5 6 3 10 9 15 12 12 3 -3 0 -11 -7 -18z m-145 -39 c23 -3 24 -4 10
-23 -16 -20 -16 -20 -36 4 -13 15 -27 22 -40 18 -19 -5 -19 -4 -2 18 16 21 18
22 30 4 7 -10 24 -19 38 -21z m2832 3 c-7 -2 -21 -12 -31 -22 -23 -24 -34 -24
-47 1 -9 18 -8 20 15 20 14 0 30 9 37 20 12 19 14 19 26 3 10 -15 10 -19 0
-22z m-2568 -52 c-13 -8 -13 -11 3 -20 9 -6 15 -14 12 -19 -3 -5 0 -12 6 -16
8 -4 9 -3 5 4 -4 7 -2 12 3 12 6 0 11 -6 11 -14 0 -9 14 -16 38 -19 20 -3 52
-7 70 -11 18 -3 31 -2 28 2 -2 4 7 8 21 9 15 0 21 -2 14 -6 -7 -4 5 -7 26 -6
50 2 63 -3 63 -26 0 -10 11 -26 26 -35 14 -10 23 -23 20 -31 -7 -16 14 -64 25
-58 4 3 5 -4 2 -15 -3 -11 -9 -18 -12 -15 -4 2 -8 -2 -8 -10 0 -8 4 -15 9 -15
5 0 5 -12 2 -26 -5 -21 -4 -25 6 -19 10 6 11 1 6 -20 -6 -25 -5 -27 9 -15 19
16 22 13 27 -23 2 -21 -3 -32 -27 -47 -19 -13 -24 -20 -15 -21 27 -3 35 -6 78
-24 24 -9 41 -19 38 -22 -2 -2 -21 3 -42 12 -23 10 -76 18 -129 21 l-91 4 -18
-32 c-11 -17 -14 -28 -7 -24 6 4 11 3 11 -3 0 -5 -8 -12 -17 -14 -15 -4 -16
-5 -2 -6 9 0 24 10 33 24 22 33 58 47 99 37 29 -6 32 -10 26 -32 -7 -24 -7
-24 -8 -2 -1 19 -3 21 -15 10 -8 -7 -10 -16 -4 -19 5 -3 2 -11 -6 -18 -8 -7
-21 -9 -27 -5 -8 4 -9 3 -5 -4 4 -7 17 -12 29 -12 12 0 27 -8 34 -19 11 -17 9
-17 -30 2 -23 12 -66 22 -95 23 -50 3 -57 0 -88 -32 -41 -40 -32 -46 12 -6 28
25 38 28 102 23 17 -1 15 -20 -4 -28 -9 -3 -19 0 -24 7 -6 9 -12 10 -30 0 -18
-9 -20 -14 -9 -21 10 -6 8 -10 -11 -18 -24 -9 -24 -10 -3 -10 12 -1 26 6 31
14 5 10 15 13 25 9 23 -9 21 -24 -3 -24 -11 0 -20 -4 -20 -10 0 -5 6 -10 13
-10 8 0 7 -4 -3 -10 -11 -7 -19 -5 -27 7 -10 12 -16 13 -26 5 -8 -7 -17 -9
-20 -5 -4 3 -7 1 -7 -5 0 -7 8 -12 18 -12 9 0 23 -4 31 -9 11 -7 7 -12 -15
-24 -45 -23 -74 -30 -74 -18 0 6 11 11 24 11 13 0 29 7 37 16 11 13 9 14 -17
8 -16 -4 -38 -14 -48 -23 -14 -11 -17 -12 -11 -2 6 11 4 13 -10 7 -12 -4 -24
0 -37 14 -11 12 -14 20 -7 20 7 0 10 3 6 6 -3 3 -13 2 -22 -4 -16 -8 -15 -11
6 -31 12 -11 29 -21 36 -21 15 0 17 -16 4 -24 -5 -4 -11 -1 -13 5 -2 6 -15 9
-28 7 l-25 -5 23 -9 c22 -9 22 -11 7 -24 -13 -11 -16 -11 -13 0 2 7 -8 16 -21
19 -23 6 -23 7 -7 24 10 10 13 17 6 17 -7 0 -10 7 -6 15 3 8 2 14 -2 14 -19
-3 -21 4 -8 35 8 19 12 37 8 40 -3 3 -1 6 5 6 5 0 15 11 21 24 7 17 22 25 54
31 l43 8 -35 6 -35 6 29 23 c16 12 37 22 47 22 10 0 20 4 23 9 3 4 -6 6 -19 3
l-25 -4 19 45 c11 26 23 62 27 82 7 39 18 43 54 18 35 -24 40 -33 40 -75 0
-21 4 -38 9 -38 22 0 41 13 42 29 0 12 2 12 9 -4 8 -19 9 -18 11 5 1 14 2 31
2 38 -1 6 5 12 11 12 8 0 11 11 8 30 -2 16 -8 27 -13 24 -5 -3 -9 0 -9 5 0 15
13 14 29 -1 11 -11 13 -10 8 4 -3 10 -2 20 3 23 6 4 10 11 10 18 0 6 -6 2 -14
-8 -13 -17 -14 -16 -30 17 -10 21 -31 43 -49 52 -18 8 -26 16 -19 16 8 0 27
-10 44 -21 28 -20 30 -20 26 -3 -2 10 -18 28 -35 40 -29 19 -31 22 -13 27 11
3 18 2 16 -1 -2 -4 13 -20 35 -35 47 -34 41 -14 -7 27 -22 18 -49 30 -72 31
-20 2 -41 4 -45 4 -5 1 -5 6 -2 11 3 6 -1 10 -10 10 -9 0 -13 -4 -10 -10 3 -5
-1 -10 -10 -10 -9 0 -14 4 -11 9 6 10 -52 24 -65 15 -5 -3 -9 0 -9 7 0 6 -8 9
-20 6 -13 -3 -20 0 -20 9 0 7 -9 18 -20 24 -11 6 -20 21 -20 33 0 24 19 51 29
41 3 -3 -1 -9 -9 -15z m-743 -21 c-3 -8 -6 -5 -6 6 -1 11 2 17 5 13 3 -3 4
-12 1 -19z m382 0 c1 -13 2 -34 4 -47 1 -16 -5 -26 -20 -32 -20 -7 -21 -6 -13
16 5 14 8 25 5 25 -2 0 1 14 6 30 13 36 16 37 18 8z m2602 -36 c-12 -8 -21
-22 -22 -31 0 -9 -3 -11 -5 -5 -4 8 -15 8 -42 -2 -20 -7 -45 -13 -55 -14 -10
0 -15 -4 -12 -10 3 -5 1 -10 -4 -10 -6 0 -11 5 -11 10 0 6 -7 10 -16 10 -8 0
-12 -4 -9 -10 3 -5 3 -10 -2 -11 -84 -10 -90 -13 -129 -52 -45 -44 -36 -49 13
-7 34 30 63 39 63 19 0 -5 -4 -7 -10 -4 -13 8 -95 -69 -86 -83 4 -6 17 1 35
19 28 27 59 41 46 19 -3 -5 -12 -10 -19 -10 -8 0 -21 -16 -30 -35 -9 -19 -21
-37 -26 -40 -6 -3 -10 -11 -10 -17 0 -6 6 -6 15 2 9 7 19 9 23 5 4 -4 2 -10
-5 -12 -7 -2 -9 -11 -6 -20 3 -8 0 -19 -8 -24 -11 -7 -11 -9 4 -9 9 0 16 -3
16 -7 -1 -5 -1 -19 0 -33 1 -20 3 -22 11 -10 8 13 10 12 10 -4 0 -13 5 -17 20
-13 11 3 18 1 14 -4 -3 -5 0 -9 5 -9 6 0 11 16 11 36 0 26 8 43 29 65 16 16
35 29 43 29 7 0 24 -34 39 -81 l26 -81 -23 5 c-13 2 -21 0 -18 -4 3 -5 14 -9
24 -9 10 0 32 -11 48 -25 22 -18 32 -21 40 -13 9 9 15 9 24 0 13 -13 -4 -16
-69 -12 -18 1 -33 -2 -33 -7 0 -4 17 -9 38 -11 21 -1 42 -9 49 -20 7 -9 17
-23 23 -29 6 -7 8 -13 4 -13 -3 0 0 -7 7 -16 25 -31 20 -75 -7 -53 -11 9 -17
9 -29 -1 -8 -7 -15 -9 -15 -4 0 5 -5 1 -11 -9 -7 -12 -17 -16 -32 -12 -20 5
-20 5 -4 -5 13 -9 25 -8 47 1 16 7 26 17 24 21 -3 4 -1 8 5 8 15 0 26 -23 13
-28 -8 -2 -7 -9 5 -20 15 -15 14 -17 -8 -23 -13 -3 -23 -12 -21 -19 3 -11 0
-11 -13 0 -15 13 -15 15 7 24 l23 9 -24 5 c-13 2 -26 0 -30 -5 -10 -14 -31
-14 -25 1 3 7 -2 16 -10 19 -9 4 -16 2 -16 -4 0 -6 -7 -8 -17 -5 -9 4 -20 1
-25 -6 -6 -10 -8 -9 -8 2 0 9 -12 23 -27 32 l-28 16 30 8 c17 4 38 13 48 19
15 10 15 13 3 18 -8 3 -17 -1 -20 -10 -5 -12 -9 -13 -21 -3 -13 11 -18 10 -28
-3 -8 -12 -16 -14 -27 -7 -13 8 -12 10 3 10 9 0 17 5 17 10 0 6 -9 10 -19 10
-36 0 -32 19 5 26 34 6 36 8 19 20 -22 16 -39 18 -30 4 3 -5 -3 -10 -14 -10
-20 0 -38 17 -28 27 9 8 96 9 94 0 -1 -4 14 -17 33 -29 l35 -23 -37 38 c-32
31 -44 37 -80 37 -24 0 -66 -11 -95 -25 -48 -22 -51 -22 -40 -4 6 10 21 19 32
19 11 0 27 5 35 11 12 8 11 9 -6 4 -13 -3 -26 1 -35 11 -11 13 -11 15 2 14 26
-4 40 0 35 9 -3 5 -15 7 -26 4 -13 -3 -20 0 -21 8 -1 8 -4 3 -8 -11 l-7 -25
-6 28 c-4 22 -2 27 13 27 11 0 19 5 19 11 0 16 -80 3 -137 -22 -25 -11 -48
-17 -50 -15 -6 6 55 32 109 47 l41 11 -29 19 c-23 14 -28 25 -26 46 5 36 8 39
28 22 16 -13 17 -11 10 14 -4 19 -3 26 4 22 12 -8 13 15 1 34 -7 11 -10 9 -16
-8 -4 -13 -9 -20 -12 -18 -3 3 9 35 27 71 17 37 28 70 25 76 -3 5 6 19 20 32
14 12 25 30 25 40 0 10 3 18 8 19 4 0 21 3 37 5 48 7 58 7 97 1 21 -3 40 -2
43 3 4 6 21 10 39 10 18 0 41 7 52 16 10 8 12 12 4 8 -8 -3 -4 5 10 18 24 24
25 24 28 4 3 -13 -4 -26 -17 -34z m42 33 c-7 -21 -12 -19 -10 4 0 11 5 18 9
15 4 -3 5 -11 1 -19z m344 -32 c-3 -3 -2 -15 2 -27 7 -17 5 -21 -14 -21 -25 0
-28 17 -13 58 10 25 13 26 21 12 5 -9 6 -19 4 -22z m-2952 -12 c3 -5 1 -12 -5
-16 -5 -3 -10 1 -10 9 0 18 6 21 15 7z m438 -58 c-7 -2 -21 -2 -30 0 -10 3 -4
5 12 5 17 0 24 -2 18 -5z m1807 3 c0 -3 -4 -8 -10 -11 -5 -3 -10 -1 -10 4 0 6
5 11 10 11 6 0 10 -2 10 -4z m-2030 -33 c0 -52 76 -109 190 -144 39 -12 47
-18 29 -18 -52 -2 -150 40 -188 79 -35 37 -68 122 -41 105 6 -3 10 -14 10 -22z
m2470 -18 c-23 -69 -105 -125 -205 -139 -39 -5 -39 -5 10 12 114 39 164 77
186 140 6 18 13 31 16 28 3 -2 0 -21 -7 -41z m-2192 18 c-16 -2 -40 -2 -55 0
-16 2 -3 4 27 4 30 0 43 -2 28 -4z m1930 0 c-16 -2 -40 -2 -55 0 -16 2 -3 4
27 4 30 0 43 -2 28 -4z m-1718 -43 c0 -5 -4 -10 -10 -10 -5 0 -10 5 -10 10 0
6 5 10 10 10 6 0 10 -4 10 -10z m2319 -60 c0 -22 -2 -21 -14 10 -18 47 -18 71
0 40 8 -14 14 -36 14 -50z m-3149 -5 c-16 -50 -18 -54 -14 -20 5 38 24 89 30
82 2 -2 -5 -30 -16 -62z m860 24 c0 -6 -4 -7 -10 -4 -5 3 -10 11 -10 16 0 6 5
7 10 4 6 -3 10 -11 10 -16z m1431 -2 c-10 -9 -11 -8 -5 6 3 10 9 15 12 12 3
-3 0 -11 -7 -18z m-1442 -76 c0 -11 -2 -12 -6 -3 -2 6 -8 10 -11 8 -4 -2 -8 8
-9 22 -1 25 0 26 13 7 8 -10 14 -26 13 -34z m2308 7 c-3 -8 -6 -5 -6 6 -1 11
2 17 5 13 3 -3 4 -12 1 -19z m-2771 -80 c-33 -54 -65 -92 -72 -85 -3 3 10 22
30 43 19 20 40 50 47 66 6 16 14 26 17 24 2 -3 -7 -24 -22 -48z m2433 -65 c15
-14 20 -23 12 -23 -8 0 -20 8 -28 18 -28 34 -73 106 -73 116 0 5 14 -12 31
-40 18 -27 43 -59 58 -71z m-2812 91 c2 -5 -3 -18 -10 -28 -12 -16 -13 -16
-14 3 -1 12 4 21 10 21 7 0 6 4 -3 11 -12 9 -12 10 -1 7 8 -3 16 -9 18 -14z
m3139 7 c-4 -5 0 -12 6 -14 8 -3 6 -6 -4 -6 -18 -1 -24 10 -11 22 9 10 15 8 9
-2z m-3041 -29 c-6 -7 15 -32 27 -32 5 0 6 5 3 11 -4 5 11 -2 34 -18 22 -15
40 -32 41 -37 0 -4 -17 4 -37 19 l-38 27 36 -35 c20 -19 42 -36 49 -39 10 -3
9 -11 -4 -36 -9 -18 -14 -37 -11 -43 4 -5 1 -8 -6 -7 -7 2 -17 -13 -23 -32 -5
-19 -16 -41 -23 -48 -11 -11 -13 -9 -13 11 0 14 -7 30 -15 37 -38 31 -64 227
-30 227 8 0 13 -3 10 -5z m2579 -3 c-4 -8 1 -9 16 -4 18 6 22 4 17 -8 -4 -11
0 -13 15 -9 17 4 20 2 15 -12 -4 -9 -3 -15 2 -12 4 3 18 -5 30 -18 19 -21 20
-24 6 -30 -48 -18 -115 1 -115 33 0 6 -7 11 -15 11 -9 0 -12 6 -9 15 4 9 1 15
-7 15 -18 0 1 17 26 23 11 3 21 5 23 6 2 0 0 -4 -4 -10z m376 -14 c11 -38 -9
-147 -35 -190 -14 -24 -25 -51 -25 -60 0 -15 -2 -15 -15 -1 -8 8 -15 21 -15
29 0 8 -14 41 -31 73 -20 37 -27 60 -20 62 14 5 121 91 121 98 0 8 -54 -32
-70 -51 -7 -8 -20 -15 -29 -14 -13 0 -14 2 -1 6 8 4 32 21 54 39 43 37 58 39
66 9z m-2550 5 c0 -6 -4 -10 -10 -10 -5 0 -7 -7 -4 -15 4 -9 0 -15 -10 -15 -9
0 -16 -5 -16 -11 0 -32 -67 -51 -115 -33 -14 6 -13 9 6 30 12 13 26 21 30 18
5 -3 6 2 3 10 -4 11 0 16 10 16 9 0 16 4 16 8 0 4 20 9 45 10 25 1 45 -3 45
-8z m175 -100 c-10 -11 -21 -17 -24 -14 -3 3 3 12 13 20 28 20 32 17 11 -6z
m1972 14 c-3 -3 -12 -4 -19 -1 -8 3 -5 6 6 6 11 1 17 -2 13 -5z m-2228 -30 c9
-8 -65 -2 -84 7 -13 6 -4 7 30 3 28 -4 52 -8 54 -10z m2366 6 c-11 -5 -36 -8
-55 -8 l-35 1 35 7 c19 4 44 8 55 8 l20 1 -20 -9z m-2521 -22 c-4 -6 -3 -8 3
-5 15 9 78 -26 81 -46 2 -9 -2 -17 -8 -17 -5 0 -10 -5 -10 -11 0 -5 5 -7 12
-3 7 4 8 3 4 -4 -4 -6 -14 -8 -22 -5 -13 5 -15 1 -9 -18 7 -22 7 -23 -11 -9
-18 14 -18 14 -5 -2 9 -12 10 -18 2 -18 -6 0 -11 -4 -11 -10 0 -5 7 -10 15
-10 8 0 15 7 15 15 0 8 5 15 12 15 6 0 8 3 5 6 -10 10 43 68 65 71 16 3 19 -1
13 -14 -3 -10 -7 -22 -8 -28 -1 -5 -8 -16 -14 -23 -7 -7 -13 -20 -13 -29 0
-10 -6 -14 -20 -10 -11 3 -20 1 -20 -4 0 -5 -13 -9 -29 -9 -16 0 -31 -5 -33
-11 -5 -14 -78 9 -78 24 0 4 -4 6 -9 3 -5 -3 -15 2 -22 11 -8 9 -9 14 -3 10 7
-4 20 15 35 46 30 67 49 97 61 97 5 0 6 -5 2 -12z m73 6 c-3 -3 -12 -4 -19 -1
-8 3 -5 6 6 6 11 1 17 -2 13 -5z m2470 0 c-3 -3 -12 -4 -19 -1 -8 3 -5 6 6 6
11 1 17 -2 13 -5z m100 -64 c19 -35 38 -67 43 -70 5 -3 5 -11 -1 -20 -8 -13
-10 -13 -19 0 -8 13 -10 12 -10 -2 0 -10 -5 -18 -11 -18 -5 0 -8 -4 -4 -9 3
-5 1 -12 -5 -16 -6 -4 -8 -10 -5 -15 3 -4 -2 -10 -10 -14 -8 -3 -15 -13 -15
-21 0 -9 -5 -13 -11 -10 -7 5 -5 13 6 25 16 17 15 19 -12 23 -28 4 -28 4 4 6
17 0 35 6 39 12 4 8 -3 9 -25 4 -24 -5 -30 -4 -26 7 4 11 -3 13 -30 10 -20 -2
-35 0 -35 6 0 6 -8 8 -17 6 -14 -4 -23 7 -38 43 -11 26 -21 50 -23 54 -2 4 4
9 13 13 9 3 13 2 10 -4 -3 -6 0 -10 9 -10 8 0 16 -6 19 -12 5 -16 14 -9 19 17
3 21 65 58 81 48 6 -4 7 -1 2 7 -5 8 -3 11 6 8 7 -2 28 -33 46 -68z m-2514 53
c-7 -2 -19 -2 -25 0 -7 3 -2 5 12 5 14 0 19 -2 13 -5z m57 -3 c0 -5 -7 -10
-16 -10 -8 0 -12 5 -9 10 3 6 10 10 16 10 5 0 9 -4 9 -10z m2303 3 c-7 -2 -19
-2 -25 0 -7 3 -2 5 12 5 14 0 19 -2 13 -5z m-2037 -70 c-4 -9 -1 -20 6 -25 9
-5 6 -8 -9 -8 -26 0 -28 3 -11 30 16 24 22 26 14 3z m1714 -30 c0 -6 -9 -9
-21 -6 -13 4 -16 8 -10 13 7 3 9 15 5 26 -6 18 -6 18 9 -1 9 -11 17 -25 17
-32z m-120 22 c0 -2 -10 -9 -22 -15 -22 -11 -22 -10 -4 4 21 17 26 19 26 11z
m-2360 -24 c0 -5 3 -18 6 -28 5 -16 4 -16 -10 1 -18 23 -20 36 -6 36 6 0 10
-4 10 -9z m3225 -36 c-8 -21 -18 -36 -21 -33 -3 3 2 23 11 43 8 21 18 36 21
33 3 -3 -2 -23 -11 -43z m-2478 -1 c-3 -3 -12 -4 -19 -1 -8 3 -5 6 6 6 11 1
17 -2 13 -5z m2613 -14 c0 -5 -2 -10 -4 -10 -3 0 -8 5 -11 10 -3 6 -1 10 4 10
6 0 11 -4 11 -10z m-3320 -54 c0 -18 -17 8 -24 34 l-7 25 15 -25 c9 -14 15
-29 16 -34z m200 38 c0 -2 -9 -4 -21 -4 -11 0 -18 4 -14 10 5 8 35 3 35 -6z
m71 -24 c17 0 38 -12 57 -31 24 -25 34 -29 48 -21 17 9 16 11 -8 17 -26 7 -30
31 -5 32 7 0 20 4 30 8 10 4 17 3 17 -4 0 -6 -10 -11 -22 -11 -21 -1 -20 -4
15 -36 21 -20 36 -38 33 -41 -3 -3 -12 2 -21 11 -9 9 -23 16 -30 16 -21 0 -28
-19 -11 -26 9 -3 16 -11 16 -18 0 -6 -21 13 -48 42 -33 36 -55 52 -72 52 l-25
-1 23 -19 c12 -10 19 -20 15 -22 -5 -3 -18 6 -30 19 -12 13 -20 23 -16 23 3 0
-1 8 -8 18 -11 14 -11 15 1 5 8 -7 26 -13 41 -13z m2556 14 c-3 -3 -12 -4 -19
-1 -8 3 -5 6 6 6 11 1 17 -2 13 -5z m-50 -17 c25 -1 21 -25 -5 -32 -25 -6 -25
-7 -8 -17 16 -9 23 -7 38 12 10 13 21 20 25 16 4 -3 -3 -13 -15 -22 -12 -8
-22 -19 -22 -25 0 -5 -9 -18 -20 -29 -11 -11 -20 -16 -20 -11 0 5 7 14 15 21
8 7 12 16 9 21 -8 14 -31 11 -47 -6 -8 -8 -17 -12 -20 -9 -3 3 11 21 31 39 34
32 35 34 15 35 -13 0 -23 5 -23 11 0 7 7 8 18 4 9 -4 22 -8 29 -8z m372 -21
c-12 -26 -29 -35 -29 -16 0 6 4 10 9 10 5 0 11 10 14 22 4 12 9 20 12 16 3 -3
0 -17 -6 -32z m-2542 -2 c-3 -3 -12 -4 -19 -1 -8 3 -5 6 6 6 11 1 17 -2 13 -5z
m-573 -32 c28 -41 115 -110 171 -136 28 -13 61 -28 75 -35 25 -11 24 -11 -5
-5 -65 13 -153 65 -214 128 -33 35 -61 67 -61 70 0 14 16 4 34 -22z m477 -19
c13 -15 12 -15 -8 -4 -24 12 -29 21 -14 21 5 0 15 -7 22 -17z m2149 12 c0 -2
-10 -9 -22 -15 -22 -11 -22 -10 -4 4 21 17 26 19 26 11z m444 -17 c-69 -78
-181 -147 -264 -162 -23 -4 -11 4 35 23 106 43 127 56 181 110 49 49 85 71 48
29z m96 -71 c0 -2 -12 -14 -27 -28 l-28 -24 24 28 c23 25 31 32 31 24z m-3066
-52 c3 3 3 0 -2 -5 -4 -5 -20 -11 -34 -12 -15 -1 -25 -5 -22 -9 3 -6 21 -4 84
12 8 2 14 -2 13 -8 -2 -7 6 -13 18 -13 15 0 19 -5 15 -16 -4 -12 -1 -14 14 -9
26 8 62 -3 54 -17 -4 -6 1 -8 16 -3 15 5 20 4 16 -4 -4 -6 -21 -9 -39 -7 -18
2 -45 4 -60 5 -16 1 -26 5 -22 11 3 6 -1 10 -10 10 -10 0 -13 -5 -9 -12 5 -9
2 -9 -9 1 -9 7 -17 10 -17 5 0 -5 -7 -1 -14 9 -8 10 -20 17 -28 16 -27 -3 -38
1 -38 16 0 9 -7 15 -16 13 -10 -2 -19 2 -21 9 -5 13 75 23 93 11 6 -4 14 -6
18 -3z m226 -45 c0 -5 -4 -10 -10 -10 -5 0 -10 5 -10 10 0 6 5 10 10 10 6 0
10 -4 10 -10z m2440 0 c0 -5 -15 -9 -32 -9 l-33 1 30 8 c17 4 31 8 33 9 1 0 2
-3 2 -9z m-2403 -6 c-3 -3 -12 -4 -19 -1 -8 3 -5 6 6 6 11 1 17 -2 13 -5z m38
-4 c3 -5 1 -10 -4 -10 -6 0 -11 5 -11 10 0 6 2 10 4 10 3 0 8 -4 11 -10z m35
0 c0 -5 -5 -10 -11 -10 -5 0 -7 5 -4 10 3 6 8 10 11 10 2 0 4 -4 4 -10z m435
-31 c4 -6 14 -8 22 -5 8 3 12 2 8 -3 -3 -5 -1 -11 4 -13 6 -1 14 -22 19 -45 6
-25 6 -40 1 -37 -5 3 -9 1 -9 -5 0 -5 8 -12 18 -14 12 -3 11 -5 -6 -6 -27 -1
-55 -25 -44 -36 4 -5 1 -5 -7 0 -8 4 -17 2 -22 -6 -6 -11 -11 -11 -21 -1 -9 9
-9 12 5 12 23 0 67 51 67 78 0 23 -40 72 -59 72 -5 0 -13 5 -16 10 -3 6 3 10
14 10 11 0 23 -5 26 -11z m1375 1 c0 -5 -9 -10 -20 -10 -11 0 -20 5 -20 10 0
6 9 10 20 10 11 0 20 -4 20 -10z m-1927 -7 c-7 -2 -19 -2 -25 0 -7 3 -2 5 12
5 14 0 19 -2 13 -5z m481 -8 c-4 -8 -8 -15 -10 -15 -2 0 -4 7 -4 15 0 8 4 15
10 15 5 0 7 -7 4 -15z m1492 0 c13 -13 13 -15 1 -15 -8 0 -17 7 -21 15 -3 8
-3 15 0 15 3 0 12 -7 20 -15z m487 8 c-7 -2 -19 -2 -25 0 -7 3 -2 5 12 5 14 0
19 -2 13 -5z m-573 -11 c0 -4 -9 -14 -20 -22 -38 -28 -14 -98 39 -115 17 -5
20 -10 12 -18 -9 -9 -14 -8 -20 2 -5 8 -14 10 -22 6 -8 -5 -11 -5 -7 0 10 10
-17 35 -39 36 -10 0 -13 3 -5 6 6 2 12 9 12 14 0 6 -3 8 -7 6 -5 -3 -8 12 -8
33 0 28 3 36 14 32 9 -3 12 -1 8 5 -4 6 -1 14 5 16 20 8 38 8 38 -1z m-1450
-54 c-14 -6 -20 -12 -13 -15 14 -5 -29 -53 -48 -53 -10 1 -8 5 5 15 11 8 17
15 13 15 -4 0 0 11 9 25 9 14 25 25 38 24 19 0 19 -1 -4 -11z m1595 -10 c17
-25 6 -35 -22 -19 -10 6 -12 11 -5 11 18 0 15 18 -5 23 -16 4 -16 5 -1 6 9 0
24 -9 33 -21z m-2079 -33 c18 7 18 7 -1 15 -16 7 -12 9 18 9 29 1 44 -6 67
-29 36 -36 48 -39 26 -5 -27 41 -18 41 12 -1 42 -58 90 -101 154 -141 32 -20
55 -40 52 -45 -4 -6 2 -7 16 -3 16 5 20 4 15 -5 -5 -9 -2 -10 14 -5 25 8 27 2
5 -19 -8 -9 -11 -16 -5 -16 5 0 16 9 24 20 17 25 30 15 16 -12 -9 -18 -8 -18
10 -8 13 7 21 7 21 1 0 -6 15 -9 34 -7 21 1 32 -2 29 -8 -4 -5 1 -7 11 -3 9 4
15 3 11 -2 -6 -11 -157 -4 -192 10 -13 5 -28 7 -33 4 -5 -3 -11 -1 -14 4 -4 5
-19 9 -35 9 -16 -1 -44 9 -63 21 -18 13 -25 20 -16 18 9 -3 19 0 22 8 4 10 -2
11 -26 4 -24 -7 -29 -6 -20 3 17 17 15 28 -3 22 -10 -4 -15 0 -15 11 0 9 -5
13 -10 10 -6 -3 -13 1 -16 9 -3 9 -13 16 -21 16 -9 0 -13 6 -9 15 4 10 -1 15
-14 15 -13 0 -18 5 -14 15 4 10 0 15 -11 15 -11 0 -15 6 -10 19 4 15 0 19 -20
19 -20 0 -23 -3 -14 -14 13 -15 9 -17 -15 -8 -9 3 -13 10 -10 15 3 5 -2 16
-10 25 -9 8 -16 21 -16 27 0 7 9 1 19 -12 13 -18 24 -22 37 -16z m2543 19 c2
-2 -4 -4 -14 -4 -14 0 -15 -3 -5 -15 7 -8 10 -16 6 -16 -3 -1 -10 -3 -16 -4
-5 -1 -13 -3 -16 -4 -4 0 -1 -8 6 -16 10 -13 9 -15 -8 -15 -15 0 -20 -5 -16
-15 4 -9 0 -15 -10 -15 -9 0 -16 -7 -16 -15 0 -8 -6 -15 -14 -15 -9 0 -13 -7
-11 -20 2 -11 -1 -23 -7 -26 -6 -4 -8 -3 -5 3 4 6 0 14 -9 17 -12 5 -15 2 -10
-10 5 -13 2 -15 -13 -11 -13 3 -18 1 -14 -9 2 -7 12 -10 21 -7 9 3 4 -4 -12
-15 -23 -16 -34 -18 -54 -11 -14 5 -27 7 -30 4 -3 -2 6 -9 19 -14 13 -5 18
-11 12 -12 -14 -2 -28 -5 -40 -9 -5 -1 -16 -2 -25 -1 -10 1 -18 -3 -18 -9 0
-6 -6 -10 -12 -9 -7 2 -26 0 -43 -4 -94 -20 -236 -15 -179 7 10 4 13 2 8 -6
-5 -8 -2 -9 12 -3 10 4 27 8 37 9 9 0 17 4 17 8 0 5 9 4 21 -2 18 -10 19 -10
10 8 -14 27 -1 37 16 12 8 -11 19 -20 24 -20 6 0 3 7 -5 16 -22 21 -20 27 5
19 16 -5 19 -4 14 5 -5 9 -2 10 14 5 15 -5 21 -2 21 9 0 21 8 20 34 -1 12 -10
15 -11 9 -3 -19 21 -17 27 31 59 24 17 59 46 77 66 18 19 40 35 49 35 8 1 28
16 45 35 25 28 35 33 60 28 16 -3 32 -7 34 -9z m-115 -19 c-9 -14 -19 -24 -21
-21 -6 6 20 46 30 46 4 0 0 -11 -9 -25z m156 15 c0 -6 -7 -13 -16 -17 -9 -3
-14 -13 -11 -24 6 -21 -8 -35 -18 -19 -3 5 2 23 12 40 17 30 33 39 33 20z
m-475 -30 c3 -5 -1 -10 -9 -10 -8 0 -18 5 -21 10 -3 6 1 10 9 10 8 0 18 -4 21
-10z m-1565 -50 c0 -5 -5 -10 -11 -10 -5 0 -7 5 -4 10 3 6 8 10 11 10 2 0 4
-4 4 -10z m1455 0 c3 -5 1 -10 -4 -10 -6 0 -11 5 -11 10 0 6 2 10 4 10 3 0 8
-4 11 -10z m-1538 -156 c-3 -3 -12 -4 -19 -1 -8 3 -5 6 6 6 11 1 17 -2 13 -5z
m1562 -10 c2 -2 -17 -4 -42 -4 -26 0 -47 4 -47 9 0 8 79 3 89 -5z m68 10 c-3
-3 -12 -4 -19 -1 -8 3 -5 6 6 6 11 1 17 -2 13 -5z m-1539 -11 c-10 -2 -26 -2
-35 0 -10 3 -2 5 17 5 19 0 27 -2 18 -5z m232 -97 c0 -2 -7 -7 -16 -10 -8 -3
-12 -2 -9 4 6 10 25 14 25 6z m990 -6 c0 -5 -7 -7 -15 -4 -8 4 -15 8 -15 10 0
2 7 4 15 4 8 0 15 -4 15 -10z m-1275 -9 c29 11 37 11 33 -3 -3 -7 1 -19 9 -26
19 -20 16 -32 -8 -32 -17 0 -19 3 -10 14 10 12 8 14 -11 9 -18 -4 -20 -3 -8 6
12 9 11 11 -8 11 -15 0 -21 -4 -16 -12 4 -6 3 -8 -3 -5 -6 4 -13 16 -16 27 -4
15 -2 19 6 12 7 -5 21 -6 32 -1z m1545 -12 c0 -5 -8 -9 -17 -9 -16 0 -16 -2
-3 -11 12 -8 10 -10 -10 -5 -24 5 -24 4 -6 -9 11 -8 24 -15 29 -15 6 0 2 -9
-8 -20 -16 -18 -20 -18 -47 -4 -24 12 -26 17 -16 29 29 32 34 41 31 51 -2 7 6
10 22 7 14 -3 25 -9 25 -14z m23 1 c-3 -11 -10 -23 -16 -27 -5 -3 -8 -2 -5 3
3 5 8 17 11 27 9 24 16 22 10 -3z m-1213 -71 c0 -79 0 -80 -22 -73 -13 4 -25
9 -28 13 -3 3 -18 13 -35 21 -16 8 -31 15 -33 16 -16 10 83 104 110 104 4 0 8
-36 8 -81z m777 49 c-3 -7 -5 -2 -5 12 0 14 2 19 5 13 2 -7 2 -19 0 -25z m83
15 c39 -25 80 -66 80 -78 0 -8 -99 -65 -113 -65 -1 0 -3 36 -4 80 -1 44 1 80
5 80 4 0 19 -7 32 -17z m-813 -15 c-3 -8 -6 -5 -6 6 -1 11 2 17 5 13 3 -3 4
-12 1 -19z m730 -55 c-3 -10 -5 -4 -5 12 0 17 2 24 5 18 2 -7 2 -21 0 -30z
m-1119 7 c7 -11 11 -20 9 -20 -2 0 -12 9 -22 20 -10 11 -14 20 -9 20 5 0 15
-9 22 -20z m57 10 c-3 -5 -16 -10 -28 -9 -21 0 -21 1 -2 9 28 12 37 12 30 0z
m7 -26 c-13 -9 -26 -13 -30 -9 -8 8 17 25 38 25 9 0 6 -6 -8 -16z m333 6 c3
-5 1 -10 -4 -10 -6 0 -11 5 -11 10 0 6 2 10 4 10 3 0 8 -4 11 -10z m1065 0
c13 -9 13 -11 0 -20 -8 -5 -22 -10 -30 -10 -13 0 -13 -1 0 -10 13 -8 13 -10
-2 -10 -9 0 -18 -5 -20 -11 -2 -6 -14 -2 -28 10 -28 23 -21 27 13 9 20 -10 21
-9 9 5 -11 13 -10 16 7 22 12 3 26 3 33 0 7 -4 4 1 -6 9 -23 18 -2 23 24 6z
m-1356 -26 c9 -8 21 -12 28 -8 7 4 4 -2 -6 -14 -22 -25 -41 -29 -32 -6 3 9 2
12 -5 9 -12 -8 -41 14 -33 26 8 14 31 11 48 -7z m299 -37 c3 -22 2 -35 -4 -32
-5 4 -9 22 -9 42 0 45 5 40 13 -10z m696 -31 c-9 -8 -10 -7 -5 7 3 10 7 31 8
45 1 22 2 21 5 -7 3 -19 -1 -38 -8 -45z m215 66 c-6 -4 -14 -14 -17 -22 -4
-10 -6 -8 -6 8 -1 15 5 22 17 22 10 0 13 -3 6 -8z m-1107 -24 c-3 -8 -6 -5 -6
6 -1 11 2 17 5 13 3 -3 4 -12 1 -19z m20 0 c-3 -8 -6 -5 -6 6 -1 11 2 17 5 13
3 -3 4 -12 1 -19z m-63 -4 c9 -3 13 -11 9 -17 -4 -7 0 -8 11 -4 14 6 17 3 12
-8 -3 -9 -2 -14 3 -10 5 3 17 2 26 -1 14 -6 14 -8 -2 -27 l-18 -20 30 19 c29
18 30 18 15 0 -14 -18 -14 -19 7 -8 19 10 23 9 28 -9 4 -12 13 -18 20 -15 9 3
12 0 8 -10 -4 -10 0 -12 11 -8 13 5 15 2 9 -12 -6 -17 -5 -17 10 -5 15 12 17
12 11 -3 -3 -9 -1 -16 6 -16 6 0 8 -5 5 -10 -4 -6 -16 -8 -28 -5 -17 5 -19 4
-7 -4 9 -7 10 -11 3 -11 -6 0 -15 5 -18 10 -4 6 -10 8 -15 5 -5 -3 -14 4 -20
15 -6 11 -16 18 -23 15 -7 -4 -3 1 7 9 22 18 14 21 -15 6 -18 -10 -25 -3 -20
23 1 5 -7 6 -18 2 -20 -6 -23 8 -7 34 5 8 -3 6 -20 -5 -28 -18 -29 -18 -14 1
13 17 13 18 -1 13 -22 -9 -42 11 -28 28 8 10 5 11 -13 6 -21 -5 -22 -4 -9 11
15 19 21 20 45 11z m167 -36 c62 -42 114 -102 103 -119 -3 -5 2 -6 10 -3 11 4
13 0 9 -15 -3 -13 -1 -21 7 -21 7 0 9 -8 5 -21 -5 -15 -4 -19 5 -14 9 6 9 3 1
-14 -13 -24 -26 -29 -17 -6 6 17 -9 21 -19 5 -8 -13 -65 -13 -65 1 0 5 -5 7
-10 4 -6 -4 -10 -3 -9 2 3 20 -2 34 -11 28 -5 -3 -10 -2 -10 4 0 5 14 15 30
23 34 14 37 25 15 54 -8 10 -15 30 -16 44 l-1 25 -8 -25 c-5 -17 -8 -19 -9 -7
-1 9 -5 17 -11 17 -5 0 -10 10 -11 23 -1 21 -1 21 -9 -3 -5 -17 -8 -19 -9 -7
-1 9 -5 17 -11 17 -5 0 -10 8 -11 18 0 14 -2 14 -9 -3 -8 -19 -9 -19 -9 3 -1
13 -5 20 -11 17 -5 -3 -10 -1 -10 4 0 21 27 11 91 -31z m909 20 c0 -12 -3 -18
-6 -15 -4 3 -20 -8 -35 -24 l-29 -31 0 26 c0 19 9 32 33 46 39 24 37 25 37 -2z
m141 6 c11 -14 10 -16 -11 -12 -13 2 -24 -2 -26 -10 -1 -7 0 -8 3 -2 2 5 9 8
14 4 15 -9 0 -24 -23 -24 -18 0 -19 -2 -7 -17 8 -9 9 -14 3 -10 -7 4 -15 0
-18 -9 -4 -9 -13 -13 -23 -10 -10 3 -25 1 -33 -4 -10 -6 -11 -10 -2 -10 6 0
12 -4 12 -9 0 -5 -15 -8 -34 -7 -28 1 -32 -1 -24 -12 9 -10 6 -18 -8 -33 -20
-20 -20 -20 -57 5 -22 15 -37 21 -37 13 0 -7 14 -18 30 -25 17 -8 30 -18 30
-23 0 -6 -4 -7 -10 -4 -9 6 -14 -8 -11 -28 1 -5 -3 -6 -9 -2 -5 3 -10 1 -10
-4 0 -6 -13 -11 -28 -11 -36 0 -84 46 -63 60 8 4 11 15 7 25 -4 12 -2 16 8 12
10 -4 17 3 21 22 3 16 18 39 33 53 44 39 52 42 52 18 0 -12 -4 -18 -10 -15 -5
3 -10 1 -10 -4 0 -6 6 -11 13 -11 6 0 4 -5 -5 -11 -20 -11 -25 -49 -7 -49 6 0
8 7 5 16 -6 15 -4 15 11 3 15 -12 16 -12 10 5 -6 14 -4 17 8 12 9 -3 15 0 15
10 0 8 5 12 10 9 6 -3 10 -1 10 6 0 8 4 8 15 -1 18 -15 20 1 3 19 -11 11 -9
11 12 1 23 -12 24 -12 11 3 -18 22 -3 22 23 0 19 -16 19 -16 7 -1 -15 20 -5
42 16 34 10 -4 13 -2 10 8 -4 10 -1 13 7 10 7 -3 16 2 19 10 8 21 31 20 48 0z
m-296 -257 c20 -5 20 -5 0 -6 -12 0 -26 4 -33 11 -17 17 -28 2 -12 -17 21 -26
5 -17 -21 12 -20 21 -21 25 -5 19 14 -5 17 -3 12 11 -6 14 -3 14 16 -4 13 -11
32 -23 43 -26z m-585 20 c0 -2 -12 -14 -27 -28 l-28 -24 24 28 c23 25 31 32
31 24z m-69 -26 c-8 -5 -20 -7 -28 -4 -21 8 -15 13 15 13 20 0 23 -3 13 -9z
m39 -36 c-7 -8 -17 -15 -23 -15 -6 0 -2 7 9 15 25 19 30 19 14 0z m600 -5 c0
-5 -5 -10 -11 -10 -5 0 -7 5 -4 10 3 6 8 10 11 10 2 0 4 -4 4 -10z m234 -38
c3 -5 -1 -9 -9 -9 -8 0 -12 4 -9 9 3 4 7 8 9 8 2 0 6 -4 9 -8z m-604 -611 c0
-12 -28 36 -34 59 -4 14 2 8 14 -14 11 -22 20 -42 20 -45z m130 41 c0 -5 -7
-17 -15 -28 -14 -18 -14 -17 -4 9 12 27 19 34 19 19z m-39 -85 c-10 -9 -11 -8
-5 6 3 10 9 15 12 12 3 -3 0 -11 -7 -18z m-31 -48 c0 -11 -4 -17 -10 -14 -5 3
-10 13 -10 21 0 8 5 14 10 14 6 0 10 -9 10 -21z"/>
<path d="M1106 4304 c-10 -14 -15 -28 -13 -31 3 -2 13 7 23 21 9 15 14 29 12
32 -3 2 -13 -7 -22 -22z"/>
<path d="M4650 4326 c0 -9 50 -86 55 -86 2 0 1 8 -2 18 -5 20 -53 81 -53 68z"/>
<path d="M1326 4055 c-25 -19 -9 -19 24 0 14 8 19 14 10 14 -8 0 -24 -6 -34
-14z"/>
<path d="M1354 3935 c-10 -8 -14 -14 -9 -14 6 0 19 6 29 14 11 8 15 15 10 15
-6 0 -19 -7 -30 -15z"/>
<path d="M1242 3928 c5 -13 38 -20 38 -8 0 4 -9 10 -21 13 -12 3 -19 1 -17 -5z"/>
<path d="M1375 3909 c-17 -6 -15 -8 10 -9 27 -1 28 -2 13 -14 -19 -14 -25 -32
-8 -21 6 3 10 2 10 -4 0 -6 -9 -15 -21 -21 -11 -7 -19 -14 -16 -17 4 -4 17 2
56 24 2 2 -2 9 -8 17 -8 10 -9 16 -1 21 27 17 -2 37 -35 24z"/>
<path d="M1241 3878 c-1 -20 -4 -42 -10 -81 0 -5 -6 -5 -12 -1 -8 4 -7 0 1
-15 13 -25 30 -19 23 8 -3 10 0 22 6 25 7 5 9 0 5 -11 -5 -16 -4 -16 6 1 10
14 10 20 0 26 -9 6 -8 11 6 20 18 11 18 11 0 5 -20 -6 -20 -5 -1 15 18 20 18
21 0 14 -13 -5 -16 -4 -11 4 4 7 3 12 -2 12 -5 0 -10 -10 -11 -22z"/>
<path d="M1401 3810 c-1 -20 -3 -22 -11 -10 -6 9 -10 10 -10 3 0 -6 5 -15 10
-18 12 -7 24 19 17 37 -3 7 -6 2 -6 -12z"/>
<path d="M1369 3744 c-13 -37 -7 -39 13 -3 9 16 13 29 7 29 -5 0 -14 -12 -20
-26z"/>
<path d="M1216 3747 c3 -8 11 -14 19 -14 20 0 19 4 -5 17 -15 8 -18 8 -14 -3z"/>
<path d="M1194 3723 c18 -36 23 -40 23 -20 0 6 -9 21 -20 32 -19 20 -19 20 -3
-12z"/>
<path d="M1353 3688 c-4 -7 -8 -15 -8 -18 -1 -3 -11 -27 -23 -54 -12 -27 -20
-54 -18 -60 2 -6 5 -3 5 7 1 9 5 17 9 17 7 0 32 63 37 90 0 3 4 11 8 18 5 6 6
12 3 12 -3 0 -8 -6 -13 -12z"/>
<path d="M1190 3675 c0 -8 -5 -15 -11 -15 -18 0 -5 -33 14 -36 13 -2 15 1 8
10 -6 7 -8 22 -4 34 3 12 3 22 -1 22 -3 0 -6 -7 -6 -15z"/>
<path d="M1140 3627 c0 -21 28 -54 50 -60 11 -3 18 -1 14 4 -3 5 -12 9 -20 9
-8 0 -13 3 -12 8 1 4 -1 17 -6 30 -8 24 -26 30 -26 9z"/>
<path d="M1286 3528 c3 -5 10 -6 15 -3 13 9 11 12 -6 12 -8 0 -12 -4 -9 -9z"/>
<path d="M1270 3499 c0 -5 -6 -7 -12 -3 -10 6 -10 4 0 -7 16 -17 15 -24 -4
-43 -8 -9 -11 -16 -6 -16 6 0 8 -9 5 -20 -4 -15 -11 -19 -32 -15 l-26 5 25
-12 c24 -12 31 -48 10 -48 -5 0 -7 -7 -4 -15 4 -8 1 -21 -5 -29 -9 -10 -8 -15
2 -19 8 -3 14 3 14 16 1 11 6 23 10 26 4 3 9 22 9 41 2 50 11 89 25 106 9 11
9 14 -1 14 -10 0 -10 3 0 15 9 10 9 15 1 15 -6 0 -11 -5 -11 -11z"/>
<path d="M1180 3466 c0 -2 7 -7 16 -10 8 -3 12 -2 9 4 -6 10 -25 14 -25 6z"/>
<path d="M1175 3410 c3 -5 8 -10 11 -10 2 0 4 5 4 10 0 6 -5 10 -11 10 -5 0
-7 -4 -4 -10z"/>
<path d="M1220 3225 c0 -19 -5 -25 -22 -26 -22 0 -22 -1 -3 -9 35 -15 42 -11
41 25 -1 39 -16 49 -16 10z"/>
<path d="M1145 3210 c3 -5 11 -10 16 -10 6 0 7 5 4 10 -3 6 -11 10 -16 10 -6
0 -7 -4 -4 -10z"/>
<path d="M1135 3170 c3 -5 8 -10 11 -10 2 0 4 5 4 10 0 6 -5 10 -11 10 -5 0
-7 -4 -4 -10z"/>
<path d="M1220 3155 c0 -8 4 -15 10 -15 5 0 7 7 4 15 -4 8 -8 15 -10 15 -2 0
-4 -7 -4 -15z"/>
<path d="M1220 3121 c0 -5 -8 -12 -17 -14 -11 -3 -7 -5 10 -6 27 -1 36 12 17
24 -5 3 -10 2 -10 -4z"/>
<path d="M1158 3038 c5 -5 16 -8 23 -6 8 3 3 7 -10 11 -17 4 -21 3 -13 -5z"/>
<path d="M1168 2963 c7 -3 16 -2 19 1 4 3 -2 6 -13 5 -11 0 -14 -3 -6 -6z"/>
<path d="M1150 2936 c0 -7 8 -20 18 -27 15 -13 16 -12 4 3 -10 13 -10 17 0 20
8 3 6 7 -5 11 -11 4 -17 1 -17 -7z"/>
<path d="M1235 2791 c-3 -5 0 -13 6 -17 7 -4 9 -3 5 4 -3 6 2 13 11 15 16 4
16 5 1 6 -9 0 -19 -3 -23 -8z"/>
<path d="M2080 3376 c0 -22 3 -27 11 -19 8 8 8 16 0 30 -9 16 -10 14 -11 -11z"/>
<path d="M2150 3217 c-8 -17 -16 -23 -20 -16 -5 7 -9 5 -13 -5 -4 -11 -1 -16
12 -16 24 0 44 24 39 47 -4 15 -7 13 -18 -10z"/>
<path d="M2055 3100 c-3 -5 -1 -10 4 -10 6 0 11 5 11 10 0 6 -2 10 -4 10 -3 0
-8 -4 -11 -10z"/>
<path d="M1878 3063 c7 -3 16 -2 19 1 4 3 -2 6 -13 5 -11 0 -14 -3 -6 -6z"/>
<path d="M1875 2960 c-3 -5 -2 -10 4 -10 5 0 13 5 16 10 3 6 2 10 -4 10 -5 0
-13 -4 -16 -10z"/>
<path d="M1845 2920 c-16 -7 -17 -9 -3 -9 9 -1 20 4 23 9 7 11 7 11 -20 0z"/>
<path d="M3646 3351 c-4 -7 -5 -15 -2 -18 9 -9 19 4 14 18 -4 11 -6 11 -12 0z"/>
<path d="M3670 3340 c0 -5 5 -10 11 -10 5 0 7 5 4 10 -3 6 -8 10 -11 10 -2 0
-4 -4 -4 -10z"/>
<path d="M3610 3223 c0 -10 5 -24 12 -31 14 -14 48 -16 48 -3 0 16 -18 22 -23
9 -4 -9 -6 -7 -6 3 -1 9 -8 22 -16 29 -12 10 -15 9 -15 -7z"/>
<path d="M3700 3141 c0 -4 17 -7 38 -7 41 0 62 -9 62 -26 0 -6 -7 -5 -17 3
-13 11 -13 8 2 -13 11 -15 26 -28 33 -28 16 0 16 3 -8 44 -19 31 -25 34 -65
34 -25 0 -45 -3 -45 -7z"/>
<path d="M3815 2980 c3 -5 16 -10 28 -9 21 0 21 1 2 9 -28 12 -37 12 -30 0z"/>
<path d="M3927 2969 c7 -7 15 -10 18 -7 3 3 -2 9 -12 12 -14 6 -15 5 -6 -5z"/>
<path d="M3970 2940 c8 -5 20 -10 25 -10 6 0 3 5 -5 10 -8 5 -19 10 -25 10 -5
0 -3 -5 5 -10z"/>
<path d="M3917 2918 c4 -8 -6 -9 -31 -5 -32 5 -36 4 -26 -8 14 -16 60 -21 60
-6 0 5 8 11 18 13 14 3 13 5 -6 10 -14 4 -20 2 -15 -4z"/>
<path d="M1557 3029 c-9 -17 -17 -36 -17 -42 1 -7 10 5 21 26 24 46 21 59 -4
16z"/>
<path d="M4200 3058 c0 -4 11 -28 26 -55 14 -26 22 -37 18 -24 -7 25 -44 92
-44 79z"/>
<path d="M4107 3007 c-8 -21 19 -35 36 -18 8 8 7 11 -5 11 -9 0 -18 5 -20 12
-3 7 -7 5 -11 -5z"/>
<path d="M4110 2966 c0 -9 30 -14 35 -6 4 6 -3 10 -14 10 -12 0 -21 -2 -21 -4z"/>
<path d="M4135 2940 c-3 -5 1 -10 9 -10 9 0 16 5 16 10 0 6 -4 10 -9 10 -6 0
-13 -4 -16 -10z"/>
<path d="M1909 2293 c-13 -16 -12 -17 4 -4 9 7 17 15 17 17 0 8 -8 3 -21 -13z"/>
<path d="M1836 2281 c-17 -6 -17 -8 -4 -14 10 -3 19 0 22 9 3 8 4 14 3 13 -1
0 -11 -4 -21 -8z"/>
<path d="M3961 2294 c6 -7 17 -10 25 -7 20 7 18 10 -11 15 -20 4 -23 2 -14 -8z"/>
<path d="M3622 2066 c13 -14 28 -12 28 5 0 5 -9 9 -20 9 -17 0 -19 -2 -8 -14z"/>
<path d="M2435 1840 c-3 -6 1 -7 9 -4 18 7 21 14 7 14 -6 0 -13 -4 -16 -10z"/>
<path d="M2530 1874 c0 -8 5 -12 10 -9 6 3 10 10 10 16 0 5 -4 9 -10 9 -5 0
-10 -7 -10 -16z"/>
<path d="M2532 1817 c-9 -11 -10 -17 -2 -22 6 -3 8 -11 5 -16 -4 -5 -2 -9 4
-9 13 0 35 39 27 48 -3 3 -6 -1 -7 -9 0 -9 -3 -7 -8 4 -6 17 -8 17 -19 4z"/>
<path d="M2550 1769 c-34 -19 -34 -19 -8 -19 17 0 31 8 38 20 13 24 14 24 -30
-1z"/>
<path d="M3235 1881 c-3 -5 -1 -12 5 -16 5 -3 10 1 10 9 0 18 -6 21 -15 7z"/>
<path d="M3329 1842 c12 -8 11 -11 -3 -15 -15 -4 -15 -5 1 -3 19 1 21 19 1 24
-10 3 -10 1 1 -6z"/>
<path d="M3230 1814 c0 -16 -2 -17 -10 -4 -9 13 -10 13 -10 0 0 -18 19 -40 34
-40 5 0 6 3 3 7 -4 3 -2 12 3 18 7 9 6 16 -5 25 -12 10 -15 9 -15 -6z"/>
<path d="M3202 1768 c3 -7 18 -14 34 -16 l29 -3 -29 16 c-34 18 -39 19 -34 3z"/>
<path d="M720 4329 c0 -5 5 -7 10 -4 6 3 10 8 10 11 0 2 -4 4 -10 4 -5 0 -10
-5 -10 -11z"/>
<path d="M4430 4055 c33 -19 49 -19 24 0 -10 8 -26 14 -34 14 -9 0 -4 -6 10
-14z"/>
<path d="M4420 4020 c8 -5 20 -10 25 -10 6 0 3 5 -5 10 -8 5 -19 10 -25 10 -5
0 -3 -5 5 -10z"/>
<path d="M4514 3888 c-4 -6 -2 -14 4 -16 7 -2 12 -8 12 -13 0 -6 -6 -7 -12 -3
-9 6 -9 3 0 -9 8 -9 12 -24 10 -34 -2 -10 3 -24 12 -31 8 -8 10 -11 3 -8 -6 4
-14 2 -17 -3 -11 -16 21 -6 40 14 17 17 17 18 2 12 -10 -3 -19 -3 -19 1 -5 25
-9 60 -10 80 -2 24 -13 29 -25 10z"/>
<path d="M4557 3753 c-4 -3 -7 -11 -7 -17 0 -6 5 -5 12 2 6 6 9 14 7 17 -3 3
-9 2 -12 -2z"/>
<path d="M4572 3721 c-16 -10 -14 -22 6 -37 12 -9 12 -13 2 -19 -9 -6 -11 -4
-5 5 5 9 4 11 -3 6 -19 -11 -14 -28 6 -22 12 4 19 1 19 -8 0 -9 -4 -13 -8 -10
-4 2 -10 0 -13 -5 -4 -5 5 -8 19 -6 32 3 31 -2 -2 -37 l-27 -28 31 10 c18 7
33 20 37 33 9 33 7 37 -10 37 -10 0 -14 5 -10 16 3 8 2 12 -4 9 -6 -3 -10 1
-10 9 0 9 -5 16 -11 16 -6 0 -9 9 -6 20 3 11 4 20 4 20 -1 0 -8 -4 -15 -9z"/>
<path d="M4420 3685 c7 -8 9 -15 5 -15 -5 0 -1 -8 7 -17 8 -10 15 -29 16 -43
1 -14 6 -26 12 -28 5 -2 10 -11 10 -19 0 -9 3 -13 6 -10 11 10 -45 147 -59
147 -5 0 -4 -7 3 -15z"/>
<path d="M3140 3592 c0 -5 -10 -8 -22 -8 -45 2 -66 -96 -28 -134 14 -14 33
-20 68 -20 54 0 76 16 87 63 13 52 -31 113 -66 91 -8 -4 -9 -3 -5 4 5 8 0 12
-13 12 -12 0 -21 -4 -21 -8z m30 -77 c0 -30 -4 -55 -10 -55 -5 0 -10 25 -10
55 0 30 5 55 10 55 6 0 10 -25 10 -55z"/>
<path d="M3336 3589 c4 -7 0 -9 -14 -5 -43 14 -71 -86 -36 -130 8 -10 13 -13
9 -7 -4 9 -1 11 9 7 9 -3 13 -10 10 -15 -3 -5 15 -9 40 -9 26 0 46 5 46 11 0
5 4 8 9 5 10 -6 33 17 30 30 -1 5 1 17 6 28 5 11 3 21 -5 26 -7 4 -10 12 -7
18 9 13 -29 46 -42 37 -6 -3 -11 -1 -11 4 0 6 -12 11 -26 11 -16 0 -23 -4 -18
-11z m34 -72 c0 -23 -5 -49 -10 -57 -7 -11 -10 4 -10 48 0 40 4 61 10 57 6 -3
10 -25 10 -48z"/>
<path d="M2367 3583 c9 -3 10 -10 2 -24 -7 -15 -7 -19 3 -17 9 2 14 -13 16
-47 2 -27 8 -54 14 -60 7 -7 9 -6 5 1 -4 7 4 13 23 16 16 3 32 0 34 -6 2 -6 5
13 5 42 1 49 6 57 34 53 4 0 7 10 7 24 0 25 -1 25 -77 24 -43 0 -72 -3 -66 -6z"/>
<path d="M2566 3578 c3 -4 1 -8 -3 -8 -9 0 -36 -110 -30 -117 7 -6 53 -6 80 2
15 4 27 3 27 -2 0 -12 48 -9 60 3 12 12 -9 126 -21 118 -5 -3 -9 0 -9 6 0 7
-20 10 -55 9 -30 -1 -52 -6 -49 -11z m74 -69 c0 -10 -4 -19 -10 -19 -5 0 -10
12 -10 26 0 14 4 23 10 19 6 -3 10 -15 10 -26z"/>
<path d="M2748 3584 c6 -3 9 -10 6 -15 -3 -6 -1 -15 4 -22 6 -7 12 -35 14 -61
2 -34 8 -51 18 -53 12 -4 12 -3 1 5 -10 7 -5 11 18 14 17 2 33 0 35 -6 2 -6 5
11 5 37 1 49 23 90 35 64 3 -6 4 -1 3 13 -2 24 -5 25 -77 27 -41 1 -69 0 -62
-3z"/>
<path d="M2900 3565 c0 -14 3 -24 8 -24 24 4 32 -4 32 -33 0 -44 12 -60 41
-56 20 2 24 9 27 46 2 30 8 42 19 42 10 0 14 6 10 20 -3 10 0 21 7 24 6 2 -24
5 -66 5 -77 1 -78 1 -78 -24z"/>
<path d="M4487 3533 c-4 -3 -2 -12 3 -19 6 -6 13 -23 15 -35 3 -13 8 -37 12
-54 3 -16 6 -47 7 -67 1 -21 4 -38 9 -38 4 0 7 -6 7 -14 0 -8 7 -17 16 -20 14
-5 15 -4 4 9 -7 8 -10 22 -6 30 3 8 1 15 -4 15 -21 0 -14 36 10 48 l25 12 -26
-5 c-21 -4 -28 0 -32 15 -3 11 0 20 6 20 8 0 9 3 1 8 -18 12 -23 39 -11 52 9
9 9 11 1 7 -11 -6 -29 19 -26 36 2 9 -3 9 -11 0z"/>
<path d="M4590 3409 c0 -5 5 -7 10 -4 6 3 10 8 10 11 0 2 -4 4 -10 4 -5 0 -10
-5 -10 -11z"/>
<path d="M4626 3315 c-11 -8 -15 -15 -9 -15 6 0 16 7 23 15 16 19 11 19 -14 0z"/>
<path d="M4640 3269 c0 -5 5 -7 10 -4 6 3 10 8 10 11 0 2 -4 4 -10 4 -5 0 -10
-5 -10 -11z"/>
<path d="M4550 3241 c8 -6 11 -11 5 -11 -5 0 -11 -11 -11 -25 -2 -27 18 -33
46 -14 12 8 11 9 -5 7 -15 -2 -20 3 -20 21 0 14 -7 26 -15 29 -13 3 -13 2 0
-7z"/>
<path d="M4547 3157 c-3 -8 3 -14 16 -15 12 0 17 2 12 6 -6 4 -13 11 -16 15
-4 4 -9 2 -12 -6z"/>
<path d="M4547 3123 c-14 -14 -6 -23 21 -22 16 0 21 3 12 6 -8 3 -18 10 -21
15 -3 4 -8 5 -12 1z"/>
<path d="M4608 3113 c7 -3 16 -2 19 1 4 3 -2 6 -13 5 -11 0 -14 -3 -6 -6z"/>
<path d="M2477 2961 c12 -10 19 -22 15 -26 -4 -5 -1 -5 6 -1 7 4 12 2 12 -7 0
-8 9 -22 20 -32 18 -17 20 -17 14 -2 -3 9 -10 17 -15 17 -5 0 -9 6 -9 13 0 14
-44 57 -58 57 -4 -1 3 -9 15 -19z"/>
<path d="M3284 2959 c-19 -22 -19 -22 3 -10 24 12 39 31 25 31 -5 0 -17 -10
-28 -21z"/>
<path d="M4598 2963 c7 -3 16 -2 19 1 4 3 -2 6 -13 5 -11 0 -14 -3 -6 -6z"/>
<path d="M3255 2922 c3 -3 -1 -12 -7 -21 -8 -10 -4 -9 10 3 26 23 26 23 7 23
-8 0 -13 -3 -10 -5z"/>
<path d="M2270 2902 c0 -5 7 -15 15 -22 8 -7 15 -8 15 -2 0 5 -7 15 -15 22 -8
7 -15 8 -15 2z"/>
<path d="M2555 2871 c-3 -5 -2 -12 3 -15 5 -3 9 1 9 9 0 17 -3 19 -12 6z"/>
<path d="M3213 2863 c0 -9 4 -10 14 -2 7 6 13 12 13 14 0 1 -6 2 -13 2 -8 0
-14 -6 -14 -14z"/>
<path d="M2576 2842 c-3 -5 1 -17 8 -27 10 -14 15 -15 21 -5 6 9 4 11 -5 5
-10 -6 -12 -4 -7 8 7 17 -8 33 -17 19z"/>
<path d="M3439 2845 c-1 -3 -2 -8 -3 -12 -1 -5 -5 -15 -10 -23 -6 -9 -1 -7 12
4 23 20 28 36 12 36 -5 0 -11 -2 -11 -5z"/>
<path d="M2336 2819 c21 -23 23 -23 20 -2 -2 9 -11 17 -20 19 -17 2 -17 2 0
-17z"/>
<path d="M3176 2808 c3 -5 10 -6 15 -3 13 9 11 12 -6 12 -8 0 -12 -4 -9 -9z"/>
<path d="M2366 2792 c-3 -5 1 -15 8 -21 11 -10 14 -9 12 3 -3 21 -13 29 -20
18z"/>
<path d="M2607 2794 c-7 -7 25 -64 36 -64 5 0 6 -4 3 -8 -3 -5 1 -9 8 -9 8 0
12 6 9 14 -3 7 -9 13 -15 13 -5 0 -6 5 -2 12 5 7 3 8 -6 3 -10 -6 -12 -4 -7 8
6 16 -15 42 -26 31z"/>
<path d="M3156 2791 c-4 -5 -2 -12 3 -15 5 -4 12 -2 15 3 4 5 2 12 -3 15 -5 4
-12 2 -15 -3z"/>
<path d="M3403 2785 c0 -8 4 -12 9 -9 5 3 6 10 3 15 -9 13 -12 11 -12 -6z"/>
<path d="M4518 2793 c7 -3 16 -2 19 1 4 3 -2 6 -13 5 -11 0 -14 -3 -6 -6z"/>
<path d="M3383 2763 c3 -5 -3 -17 -14 -26 -11 -10 -17 -23 -13 -29 6 -9 9 -8
12 2 3 8 11 22 19 32 11 12 11 18 2 24 -7 4 -10 3 -6 -3z"/>
<path d="M2396 2752 c-2 -4 4 -19 14 -32 19 -24 19 -24 13 -2 -3 12 -10 22
-15 22 -5 0 -6 5 -3 10 3 6 4 10 1 10 -3 0 -7 -4 -10 -8z"/>
<path d="M3137 2748 c-10 -8 -14 -18 -9 -26 6 -9 12 -6 20 13 13 29 12 30 -11
13z"/>
<path d="M4383 2693 c9 -2 25 -2 35 0 9 3 1 5 -18 5 -19 0 -27 -2 -17 -5z"/>
<path d="M2430 2680 c0 -5 5 -10 11 -10 5 0 7 -5 3 -12 -4 -7 -3 -8 5 -4 9 6
9 11 0 22 -14 17 -19 18 -19 4z"/>
<path d="M3331 2676 c-9 -11 -9 -16 1 -22 7 -4 10 -4 6 1 -4 4 0 14 10 21 9 7
12 14 6 14 -6 0 -17 -6 -23 -14z"/>
<path d="M4386 2644 c-18 -26 -18 -26 2 -15 11 6 22 17 26 26 9 23 -7 17 -28
-11z"/>
<path d="M2686 2642 c-3 -6 -1 -14 5 -17 15 -10 25 3 12 16 -7 7 -13 7 -17 1z"/>
<path d="M3316 2636 c5 -13 4 -17 -4 -12 -8 5 -10 2 -6 -8 3 -9 1 -16 -5 -16
-6 0 -11 -4 -11 -10 0 -19 17 -10 29 17 9 19 9 29 1 37 -8 8 -9 6 -4 -8z"/>
<path d="M4336 2624 c-8 -22 -8 -24 7 -18 8 3 14 11 14 19 0 20 -13 19 -21 -1z"/>
<path d="M2460 2616 c0 -3 9 -20 21 -38 17 -27 19 -28 13 -8 -6 22 -34 59 -34
46z"/>
<path d="M2706 2595 c-9 -26 -7 -32 5 -12 6 10 9 21 6 23 -2 3 -7 -2 -11 -11z"/>
<path d="M3051 2575 c1 -19 18 -51 18 -35 0 8 -4 22 -9 30 -5 8 -9 11 -9 5z"/>
<path d="M3276 2548 c-9 -34 -7 -48 5 -48 6 0 8 7 5 16 -3 8 -1 24 4 35 6 11
7 19 2 19 -6 0 -12 -10 -16 -22z"/>
<path d="M2731 2544 c0 -11 3 -14 6 -6 3 7 2 16 -1 19 -3 4 -6 -2 -5 -13z"/>
<path d="M2490 2518 c0 -19 2 -20 10 -8 13 19 13 30 0 30 -5 0 -10 -10 -10
-22z"/>
<path d="M2727 2503 c3 -7 9 -13 14 -13 5 0 9 6 9 13 0 8 -6 14 -14 14 -8 0
-12 -6 -9 -14z"/>
<path d="M3030 2503 c0 -7 4 -13 9 -13 5 0 11 6 14 13 3 8 -1 14 -9 14 -8 0
-14 -6 -14 -14z"/>
<path d="M2500 2481 c0 -5 5 -13 10 -16 6 -3 10 -2 10 4 0 5 -4 13 -10 16 -5
3 -10 2 -10 -4z"/>
<path d="M2750 2463 c0 -16 -2 -16 -11 -3 -9 12 -10 12 -7 1 7 -24 28 -25 28
-2 0 12 -2 21 -5 21 -3 0 -5 -8 -5 -17z"/>
<path d="M3260 2469 c0 -5 5 -7 10 -4 6 3 10 8 10 11 0 2 -4 4 -10 4 -5 0 -10
-5 -10 -11z"/>
<path d="M3040 2450 c-1 -23 -2 -23 -10 -5 -7 16 -9 17 -9 3 -1 -9 4 -20 9
-23 12 -7 24 19 17 37 -3 7 -6 2 -7 -12z"/>
<path d="M2740 2396 c0 -8 7 -16 15 -20 13 -4 14 -2 5 14 -13 23 -20 26 -20 6z"/>
<path d="M3028 2388 c0 -13 0 -34 1 -48 1 -20 -1 -22 -9 -10 -8 12 -10 11 -10
-8 0 -13 4 -20 10 -17 6 4 8 -6 6 -25 -2 -17 0 -33 5 -36 5 -3 9 33 9 80 0 47
-2 86 -5 86 -3 0 -6 -10 -7 -22z"/>
<path d="M2742 2273 c-2 -27 13 -23 20 5 3 10 0 19 -6 19 -7 0 -13 -11 -14
-24z"/>
<path d="M2740 2204 c0 -8 5 -12 10 -9 6 4 8 11 5 16 -9 14 -15 11 -15 -7z"/>
<path d="M3020 2177 c0 -19 5 -48 10 -63 8 -19 8 -30 0 -38 -14 -14 -13 -73 2
-82 8 -5 9 2 5 24 -4 18 -2 34 4 38 7 4 8 24 5 53 -4 25 -8 56 -9 68 -5 38
-17 38 -17 0z"/>
<path d="M2749 2168 c-5 -12 -6 -179 -1 -182 4 -2 7 38 8 90 1 80 -1 105 -7
92z"/>
<path d="M3021 1964 c0 -11 3 -14 6 -6 3 7 2 16 -1 19 -3 4 -6 -2 -5 -13z"/>
<path d="M2756 1955 c4 -8 8 -15 10 -15 2 0 4 7 4 15 0 8 -4 15 -10 15 -5 0
-7 -7 -4 -15z"/>
<path d="M2851 864 c0 -11 3 -14 6 -6 3 7 2 16 -1 19 -3 4 -6 -2 -5 -13z"/>
<path d="M2921 864 c0 -11 3 -14 6 -6 3 7 2 16 -1 19 -3 4 -6 -2 -5 -13z"/>
<path d="M2850 810 c0 -5 4 -10 9 -10 6 0 13 5 16 10 3 6 -1 10 -9 10 -9 0
-16 -4 -16 -10z"/>
</g>
</svg>
